<?xml version="1.0" standalone="no"?>
<!DOCTYPE svg PUBLIC "-//W3C//DTD SVG 1.1//EN" "http://www.w3.org/Graphics/SVG/1.1/DTD/svg11.dtd" >
<svg xmlns="http://www.w3.org/2000/svg">
<metadata>
This is a custom SVG webfont generated by Font Squirrel.
Copyright   : Copyright c May305   Manfred Klein rev1
</metadata>
<defs>
<font id="webfontZe3tUONA" horiz-adv-x="1024" >
<font-face units-per-em="2048" ascent="1638" descent="-410" />
<missing-glyph horiz-adv-x="569" />
<glyph unicode=" "  horiz-adv-x="569" />
<glyph unicode="&#x09;" horiz-adv-x="569" />
<glyph unicode="&#xa0;" horiz-adv-x="569" />
<glyph unicode="!" horiz-adv-x="362" d="M248 1397h-133l35 -1004h63zM248 0v199h-133v-199h133z" />
<glyph unicode="&#x22;" horiz-adv-x="569" d="M494 1167v234h-136v-232l25 -247h86zM213 1167v234h-135v-232l24 -247h86z" />
<glyph unicode="#" horiz-adv-x="1351" d="M1194 430v94h-268l80 391h188v95h-168l86 420h-96l-86 -420h-385l86 420h-96l-86 -420h-291v-95h270l-80 -391h-190v-94h170l-88 -430h96l88 430h385l-88 -430h96l88 430h289zM909 915l-80 -391h-385l80 391h385z" />
<glyph unicode="$" horiz-adv-x="1067" d="M975 338q0 156 -96.5 240t-337.5 157q-174 53 -260 115q-82 55 -82 162q0 106 94 176q96 72 229 72q129 0 230 -48q47 -23 88 -46t73 -50v113q-59 47 -155 86q-70 29 -178 39l2 164h-99l-2 -164q-152 -12 -262 -105q-127 -102 -127 -250q0 -150 94 -225q92 -74 295 -133 q193 -57 293 -123q96 -66 96 -182q0 -109 -96 -186q-94 -76 -235 -76q-94 0 -217 47q-59 23 -120 57.5t-120 79.5v-113q68 -63 188 -116q47 -23 100.5 -34t112.5 -15v-220h99v220q154 14 264 104q129 107 129 254z" />
<glyph unicode="%" horiz-adv-x="1429" d="M698 1087q0 135 -96 231.5t-233 96.5q-133 0 -234 -96q-96 -96 -96 -232q0 -133 96 -233q96 -96 234 -96q135 0 233 98q96 96 96 231zM610 1083q0 -96 -71 -168q-70 -70 -168 -69q-100 0 -172 71.5t-72 172.5q0 96 72 167q70 70 174 70q96 0 168 -72q69 -70 69 -172z M1323 1407h-104l-1127 -1430h105zM1393 301q0 135 -99 231q-96 96 -233 97q-133 0 -234 -97q-96 -96 -96 -231t98 -229q96 -96 232 -97q135 0 235 97q97 96 97 229zM1305 297q0 -94 -72 -166q-72 -68 -170 -68q-100 0 -172 72q-72 68 -72 168q0 96 74 168q70 70 172 70 q98 0 170 -72q70 -74 70 -172z" />
<glyph unicode="&#x26;" horiz-adv-x="1259" d="M1247 0l-289 303q51 68 99 160q57 113 98 233h-115q-20 -59 -42.5 -110t-45.5 -94l-30 -56q-16 -29 -37 -57l-316 332q119 57 199 141q94 94 94 231q0 135 -94 211q-90 76 -217 76q-131 0 -227 -88q-98 -86 -99 -211q0 -90 45 -166q45 -80 111 -145l20 -21 q-145 -55 -245 -166q-102 -115 -103 -258q0 -133 92.5 -233t272.5 -100q162 0 287 71q100 59 192 170l213 -223h137zM762 1073q0 -90 -76 -170q-66 -66 -188 -117l-21 21q-29 29 -55.5 61.5t-48.5 67.5q-43 70 -43 137q0 92 69 144q72 53 154 53t147 -56q62 -53 62 -141z M825 297q-86 -106 -176 -160q-96 -55 -213 -55q-121 0 -192 63q-74 63 -74 189q0 117 86 196.5t217 135.5z" />
<glyph unicode="'" horiz-adv-x="454" d="M295 1167v234h-135v-232l24 -247h86z" />
<glyph unicode="(" horiz-adv-x="681" d="M666 -451q-160 137 -279 379q-119 240 -119 545q0 299 121 545q121 244 277 379h-105q-139 -129 -270 -367q-127 -238 -127 -557q0 -324 129 -559q125 -233 268 -365h105z" />
<glyph unicode=")" horiz-adv-x="681" d="M518 473q0 322 -129 559q-129 236 -272 365h-105q160 -135 281 -379q121 -246 121 -545t-121 -545q-121 -244 -281 -379h105q141 127 272 367q129 235 129 557z" />
<glyph unicode="*" horiz-adv-x="960" d="M864 838l-78 32q-33 14 -66 32l-77 40l-111 57l111 58l77 40q34 17 66 31l78 33l-51 92q-39 -31 -67.5 -51t-61.5 -41l-75 -47l-105 -67q4 76 6 124t5 86.5l6 73.5t9 84h-102q6 -49 9 -84l6 -73.5t5.5 -87l6.5 -123.5l-106 67l-75 47q-33 20 -61.5 41l-67.5 51l-51 -92 l78 -33q33 -14 67 -31l76 -40l111 -58l-111 -57l-76 -40l-67 -32l-78 -32l51 -93q39 31 68 51.5l61 41.5l75 47l106 67l-6.5 -124t-5.5 -87t-6 -73.5t-9 -83.5h102q-6 49 -9 83.5t-6 73.5t-5 87.5t-6 123.5l105 -67l75 -47q33 -20 61.5 -41l67.5 -52z" />
<glyph unicode="+" horiz-adv-x="1351" d="M1212 678v90h-491v485h-90v-485h-492v-90h492v-492h90v492h491z" />
<glyph unicode="," horiz-adv-x="362" d="M248 35v164h-133v-199h43q0 -74 -15 -109q-6 -18 -23.5 -33.5t-25.5 -25.5v-72l64 52q35 29 53 67q37 76 37 156z" />
<glyph unicode="-" horiz-adv-x="641" d="M563 463v96h-485v-96h485z" />
<glyph unicode="." horiz-adv-x="362" d="M246 0v201h-131v-201h131z" />
<glyph unicode="/" horiz-adv-x="575" d="M553 1415h-96l-451 -1433h96z" />
<glyph unicode="0" d="M961 692v13q0 311 -121 512q-119 199 -326 198q-205 0 -328 -198q-121 -201 -120 -512v-13q0 -311 120 -512q119 -199 326 -198q205 0 328 198q121 201 121 512zM854 690q0 -260 -96 -436q-94 -174 -244 -174q-154 0 -248 174t-94 436v17q0 260 96 436q94 174 244 174 q154 0 248 -174q94 -178 94 -436v-17z" />
<glyph unicode="1" horiz-adv-x="686" d="M526 0v1397h-106v-107l-381 -379l72 -73l309 309v-1147h106z" />
<glyph unicode="2" d="M963 0v96h-650l87 102l83 101l76 103l76 106q29 41 61.5 97.5t67.5 127.5q66 147 65 277q0 172 -118 288q-117 117 -293 117q-117 0 -199 -45q-88 -45 -127 -82v-125q70 66 144 111q76 43 174 43q135 0 223 -88q90 -90 90 -221q0 -121 -51 -236q-27 -59 -57.5 -117.5 t-71.5 -117.5q-102 -150 -207 -265l-106 -116l-121 -127v-29h854z" />
<glyph unicode="3" d="M879 393q0 121 -72 215q-72 90 -203 133q139 47 199 133q59 88 59 185q0 156 -114 258q-115 98 -291 98q-121 0 -201 -35q-78 -35 -104 -55v-100q14 10 38.5 23.5t63.5 31.5q76 37 188 37q137 0 228 -78q88 -76 88 -186q0 -117 -99 -193q-96 -76 -233 -76h-12v-98h20 q82 0 144.5 -23.5t107.5 -64.5q88 -82 88 -221q0 -133 -92 -215q-88 -82 -236 -82q-100 0 -184 22q-39 10 -69.5 22.5l-53.5 22.5v-96q37 -18 129 -45q88 -25 189 -24q186 0 305 112q117 113 117 299z" />
<glyph unicode="4" d="M965 539v84h-193v792h-41l-702 -842v-34h639v-539h104v539h193zM668 623h-494l494 596v-596z" />
<glyph unicode="5" d="M870 434q0 197 -125 316q-63 59 -144 89.5t-185 26.5l-119 -6v440h494v97h-592v-652q20 6 41.5 11.5t44.5 9.5q41 8 96 8q178 0 282.5 -92t104.5 -252q0 -154 -98 -252q-96 -98 -248 -98q-106 0 -201 43q-47 20 -81 37.5t-56 34.5v-121q43 -27 135 -60q90 -33 209 -32 q193 0 320 127q122 124 122 325z" />
<glyph unicode="6" d="M946 360q0 178 -110 287q-109 109 -287 109q-90 0 -172 -35q-76 -31 -133 -78q39 174 131 309q150 219 393 389l-61 74q-227 -158 -404 -399q-178 -244 -178 -539q0 -240 123 -368q121 -127 301 -127q168 0 282.5 108t114.5 270zM842 356q0 -119 -86 -198 q-88 -78 -213 -78q-129 0 -226 102q-92 100 -92 281v31q0 16 2 30q31 35 111 82q84 51 203 51q131 0 217 -86q84 -84 84 -215z" />
<glyph unicode="7" d="M971 1397h-912v-97h762l-577 -1280l88 -38z" />
<glyph unicode="8" d="M911 383q0 117 -59 207q-59 88 -147 135q92 68 135 143q43 74 43 176q0 152 -107 261q-109 111 -254 110q-162 0 -270.5 -108.5t-108.5 -268.5q0 -82 41 -164q39 -78 142 -149q-94 -49 -154 -139q-57 -88 -57 -207q0 -166 116 -283q115 -115 281 -114q170 0 284.5 114.5 t114.5 286.5zM778 1038q0 -111 -77.5 -188.5t-186.5 -77.5q-106 0 -188 78q-78 78 -78 182q0 127 73.5 205t192.5 78q113 0 191 -78q73 -78 73 -199zM807 379q0 -125 -84 -213q-84 -86 -207 -86q-127 0 -213 86q-84 84 -84 211q0 129 84 213t213 84q121 0 207 -86 q84 -88 84 -209z" />
<glyph unicode="9" d="M891 909q0 250 -123 379q-121 127 -311 127q-168 0 -281 -110q-111 -111 -110 -281q0 -160 112 -270q115 -109 279 -109q96 0 190 41q70 33 121 68q-20 -92 -54 -172t-87 -152q-78 -106 -175.5 -198.5t-213.5 -174.5l57 -75q322 236 461 467q135 229 135 460zM782 922 v-25q0 -10 -2 -20q-39 -41 -116 -84q-90 -49 -203 -50q-119 0 -207 84q-84 84 -84 197q0 125 84 209t207 84q150 0 235.5 -96t85.5 -299z" />
<glyph unicode=":" horiz-adv-x="362" d="M246 721v201h-131v-201h131zM246 0v201h-131v-201h131z" />
<glyph unicode=";" horiz-adv-x="362" d="M246 721v201h-131v-201h131zM248 35v164h-133v-199h43q0 -74 -15 -109q-6 -18 -23.5 -33.5t-25.5 -25.5v-72l64 52q35 29 53 67q37 76 37 156z" />
<glyph unicode="&#x3c;" horiz-adv-x="1351" d="M1212 225v101l-950 393l950 393v100l-1073 -450v-86z" />
<glyph unicode="=" horiz-adv-x="1351" d="M1212 922v90h-1073v-90h1073zM1212 426v90h-1073v-90h1073z" />
<glyph unicode="&#x3e;" horiz-adv-x="1351" d="M1212 676v86l-1073 450v-100l948 -393l-948 -393v-101z" />
<glyph unicode="?" horiz-adv-x="575" d="M494 1126q0 117 -64 205q-66 86 -194 86q-49 0 -84 -14q-10 -4 -35 -15l-42 -20q-17 -8 -20 -10l35 -88l28.5 15t59.5 28.5t55 15.5q68 0 113 -57q43 -55 43 -135q0 -90 -41 -176q-41 -84 -110 -197q-49 -80 -70 -135q-16 -55 -16 -113q0 -47 26 -98q23 -47 53 -80l35 31 q-14 27 -21 46t-12 29q-2 10 -3 22.5t-1 25.5q0 47 15 90q14 45 61 112q102 147 146 232q43 85 43 200zM307 0v199h-133v-199h133z" />
<glyph unicode="@" horiz-adv-x="1638" d="M1450 178h-78q-59 -90 -207 -166q-147 -74 -331 -73q-227 0 -406 170q-180 168 -180 434q0 258 174 434q176 176 414 176q223 0 374.5 -147.5t151.5 -341.5q0 -184 -105 -320q-104 -133 -198 -133q-8 0 -23 22q-6 8 -6 33q0 18 6 49l127 594h-96l-25 -125 q-29 78 -100 117q-70 39 -129 39q-180 0 -291 -149q-109 -152 -108 -318q0 -162 82 -246q80 -86 188 -86q82 0 154 47q68 45 100 95q12 -84 37 -115q27 -31 53 -31q141 0 268 156q127 152 127 366q0 225 -165.5 391.5t-426.5 166.5q-270 0 -460 -201q-188 -201 -189 -465 q0 -270 184.5 -473t479.5 -203q209 0 379 100q170 99 225 203zM1006 639q0 -53 -22.5 -119.5t-63.5 -144.5q-86 -160 -218 -160q-68 0 -129 64q-61 61 -61 188q0 147 82 274q88 131 211 131q92 0 145 -67q56 -68 56 -166z" />
<glyph unicode="A" horiz-adv-x="1366" d="M1356 0l-643 1407h-60l-645 -1407h113l221 483h682l221 -483h111zM983 573h-600l299 658z" />
<glyph unicode="B" horiz-adv-x="1087" d="M1040 379q0 145 -92 235q-88 86 -231 111q104 55 153.5 131t49.5 176q0 174 -121 271q-119 94 -332 94h-303v-1397h407q219 0 344 100q125 99 125 279zM803 1022q0 -133 -96 -205q-96 -68 -271 -67h-164v557h158q184 0 278.5 -70t94.5 -215zM926 369q0 -133 -101 -207 q-102 -72 -274 -72h-279v569h244q197 0 305 -71q105 -72 105 -219z" />
<glyph unicode="C" horiz-adv-x="1386" d="M1341 115v112q-47 -27 -101 -52t-120 -48q-127 -45 -276 -45q-279 0 -453 172t-174 444q0 264 178 441q176 176 443 176q135 0 258 -39q131 -41 229 -98v120q-102 53 -231 86q-129 31 -238 31q-324 0 -541 -205q-215 -207 -215 -512q0 -317 215 -516q213 -201 547 -200 q121 0 250 38q66 20 124 43t105 52z" />
<glyph unicode="D" horiz-adv-x="1515" d="M1411 696q0 326 -203 514q-203 186 -549 187h-497v-1397h512q348 0 542.5 194.5t194.5 501.5zM1294 696q0 -274 -178 -440t-471 -166h-375v1217h379q293 0 469 -168q176 -171 176 -443z" />
<glyph unicode="E" horiz-adv-x="1003" d="M942 0v90h-670v567l637 2v89h-637v559h656v90h-764v-1397h778z" />
<glyph unicode="F" horiz-adv-x="897" d="M883 1307v90h-723v-1397h108v686h551v90h-551v531h615z" />
<glyph unicode="G" horiz-adv-x="1472" d="M1356 100v535h-402v-90h295v-377q-53 -31 -155 -59q-98 -27 -217 -27q-295 0 -478 170q-180 168 -180 448q0 264 178 441q180 174 445 174q131 0 254 -39q121 -35 235 -102v122q-57 33 -194 76q-135 43 -295 43q-317 0 -529 -205q-211 -203 -211 -508q0 -311 217 -516 q213 -205 543 -204q137 0 271 34q127 35 223 84z" />
<glyph unicode="H" horiz-adv-x="1472" d="M1309 0v1397h-109v-645h-930v645h-108v-1397h108v662h930v-662h109z" />
<glyph unicode="I" horiz-adv-x="425" d="M266 0v1397h-106v-1397h106z" />
<glyph unicode="J" horiz-adv-x="425" d="M279 -14v1411h-109v-1389q0 -154 -49 -235q-45 -82 -148 -82l-65 8l10 -102l70 -5q8 -1 16 0q54 0 99 23q52 27 94 74q82 94 82 297z" />
<glyph unicode="K" horiz-adv-x="1087" d="M264 0v700l731 -700h138l-730 700l666 697h-135l-670 -697v697h-108v-1397h108z" />
<glyph unicode="L" horiz-adv-x="960" d="M961 0v90h-691v1307h-108v-1397h799z" />
<glyph unicode="M" horiz-adv-x="1599" d="M1438 0v1397h-109l-530 -649l-533 649h-108v-1397h108v1243l533 -657l530 657v-1243h109z" />
<glyph unicode="N" horiz-adv-x="1579" d="M1421 0v1397h-108v-1225l-264 311l-267 301l-266 301l-264 312h-92v-1397h108v1221l1061 -1221h92z" />
<glyph unicode="O" horiz-adv-x="1685" d="M1583 698q0 305 -213 512q-215 205 -526 205q-315 0 -529 -207q-211 -205 -211 -510t213 -512q211 -205 527 -204q313 0 526 206.5t213 509.5zM1466 698q0 -254 -182 -436q-180 -180 -440 -180q-262 0 -442.5 180t-180.5 436q0 254 182 437q180 180 441 180 q260 0 440 -180q182 -183 182 -437z" />
<glyph unicode="P" horiz-adv-x="1044" d="M999 1024q0 182 -116 279q-117 94 -328 94h-395v-1397h108v653h277q213 0 333.5 96.5t120.5 274.5zM885 1026q0 -137 -92 -211q-90 -72 -256 -72h-269v564h281q156 0 246 -76q90 -74 90 -205z" />
<glyph unicode="Q" horiz-adv-x="1685" d="M1583 698q0 307 -213 512q-104 104 -236.5 154.5t-289.5 50.5q-315 0 -529 -207q-211 -205 -211 -510q0 -307 211 -512q176 -172 451 -200q166 -147 354 -211q199 -68 281 -68l-8 111l-29 3q-29 3 -71 9t-88 16.5t-79 24.5q-57 23 -109 51.5t-99 61.5q272 29 452 202 q213 207 213 512zM1466 698q0 -254 -182 -436q-180 -180 -440 -180q-262 0 -442.5 180t-180.5 436q0 254 182 437q180 180 441 180q260 0 440 -180q182 -183 182 -437z" />
<glyph unicode="R" horiz-adv-x="1173" d="M1219 0l-263 401l-57 86l-61 88q-63 86 -119 121q102 33 184 119q80 82 80 217q0 176 -123 273q-123 92 -346 92h-352v-1397h108v670h213q143 0 217 -84q37 -41 73 -92.5t73 -110.5l246 -383h127zM866 1034q0 -133 -96 -205q-94 -70 -268 -69h-232v547h242q164 0 260 -72 q94 -70 94 -201z" />
<glyph unicode="S" horiz-adv-x="960" d="M874 354q0 160 -77 248q-76 84 -289 162q-160 59 -229 119q-68 57 -68 172q0 106 86 184q82 76 207 76q104 0 184 -39l75 -37q34 -16 56 -31l-2 119q-10 8 -38.5 21.5t-76.5 31.5q-94 35 -210 35q-160 0 -281 -108q-117 -109 -117 -256q0 -152 80 -232q78 -80 250 -139 q168 -57 254 -127q82 -68 82 -193q0 -119 -86 -198.5t-213 -79.5q-80 0 -162 37q-41 18 -88 46t-98 66v-127q23 -16 58.5 -35.5t86.5 -41.5q98 -45 221 -45q162 0 278.5 110t116.5 262z" />
<glyph unicode="T" horiz-adv-x="1173" d="M1165 1307v90h-1157v-90h524v-1307h109v1307h524z" />
<glyph unicode="U" horiz-adv-x="1429" d="M1300 606v791h-108v-783q0 -244 -129 -387q-127 -145 -344 -145q-219 0 -350 141q-129 141 -129 381v793h-109v-801q0 -270 164 -444q164 -170 422 -170t422 176q161 178 161 448z" />
<glyph unicode="V" horiz-adv-x="1216" d="M1214 1397h-112l-492 -1182l-495 1182h-109l588 -1411h31z" />
<glyph unicode="W" horiz-adv-x="2111" d="M2111 1397h-108l-463 -1159l-467 1159h-33l-469 -1157l-462 1157h-111l561 -1411h29l469 1179l469 -1179h26z" />
<glyph unicode="X" horiz-adv-x="1409" d="M1411 0l-637 715l600 682h-139l-530 -602l-533 602h-139l600 -682l-633 -715h139l566 639l565 -639h141z" />
<glyph unicode="Y" horiz-adv-x="1193" d="M1194 1397h-131l-465 -553l-467 553h-131l543 -647v-750h108v750z" />
<glyph unicode="Z" horiz-adv-x="1300" d="M1251 0v90h-1054l1048 1268l-10 39h-1169v-90h999l-1047 -1276l11 -31h1222z" />
<glyph unicode="[" horiz-adv-x="618" d="M604 -451v97h-364v1654h364v97h-463v-1848h463z" />
<glyph unicode="\" horiz-adv-x="575" d="M569 -18l-448 1433h-94l448 -1433h94z" />
<glyph unicode="]" horiz-adv-x="618" d="M477 -451v1848h-463v-97h365v-1654h-365v-97h463z" />
<glyph unicode="^" horiz-adv-x="1351" d="M1126 881l-444 528h-12l-443 -528l64 -58l385 461l387 -461z" />
<glyph unicode="_" d="M1038 -623v103h-1050v-103h1050z" />
<glyph unicode="`" horiz-adv-x="681" d="M537 1067l-213 319h-166l313 -319h66z" />
<glyph unicode="a" horiz-adv-x="1044" d="M913 -4v924h-96v-64q-66 39 -139 62q-68 20 -137 20q-205 0 -336 -141q-129 -141 -129 -363q0 -199 125 -325q127 -127 319 -127q88 0 158 20q76 20 137 49v-55h98zM817 154q-45 -29 -117 -58q-68 -25 -161 -24q-162 0 -260 100q-98 98 -99 264q0 176 108.5 291 t272.5 115q86 0 158 -31q72 -33 98 -51v-606z" />
<glyph unicode="b" horiz-adv-x="1044" d="M965 483q0 207 -113 332q-115 123 -301 123q-88 0 -170 -37q-82 -33 -156 -117v613h-98l2 -1346q63 -29 150 -51q80 -18 163 -18q244 0 383.5 139t139.5 362zM862 479q0 -170 -117 -286q-119 -115 -288 -115q-82 0 -148 16q-59 14 -84 29v559q23 27 54.5 54.5t72.5 58.5 q82 61 197 61q137 0 225 -106q88 -111 88 -271z" />
<glyph unicode="c" horiz-adv-x="854" d="M793 29v102q-37 -16 -101 -35q-66 -18 -141 -18q-170 0 -264 104q-96 102 -97 277q0 168 97 276q94 106 252 107q82 0 137 -21q29 -10 54.5 -18t45.5 -19v109q-29 10 -56 17l-56 16q-59 12 -127 12q-207 0 -330 -141q-121 -139 -121 -338q0 -219 123 -348t338 -129 q78 0 149 18l59 17z" />
<glyph unicode="d" horiz-adv-x="1044" d="M922 0v1397h-99v-533q-39 25 -116 51q-74 23 -142 23q-215 0 -348 -133t-133 -346q0 -203 135 -340t332 -137q80 0 141 20q61 23 131 70v-72h99zM821 162q-10 -8 -30.5 -21.5t-53.5 -29.5q-59 -33 -164 -33q-166 0 -276 110q-109 109 -109 271q0 168 105 276 q100 106 266 107q90 0 158 -31q72 -33 104 -57v-592z" />
<glyph unicode="e" horiz-adv-x="980" d="M913 494q0 193 -114 319q-113 125 -293 125q-186 0 -305 -135q-119 -133 -119 -330q0 -215 133 -354q131 -137 340 -137q109 0 201 41q45 20 78.5 40.5t60.5 40.5v111q-20 -18 -53 -39.5l-78 -48.5q-90 -49 -201 -49q-162 0 -270 108q-109 104 -109 267v22q0 10 2 19h727 zM793 573h-596q29 100 75 160q88 109 236 109q123 0 194 -72q68 -68 91 -197z" />
<glyph unicode="f" horiz-adv-x="491" d="M680 1284v92q-10 8 -59 23q-53 16 -107 16q-141 0 -231 -96t-90 -248v-151h-170v-80h170v-840h98v840h178v80h-178v120q0 143 55 211t162 68q57 0 113 -16l40 -12.5t19 -6.5z" />
<glyph unicode="g" horiz-adv-x="1044" d="M915 -188h-2v1108h-96v-64q-66 39 -139 62q-68 20 -137 20q-205 0 -336 -141q-129 -141 -129 -363q0 -199 125 -325q127 -127 319 -127q88 0 158 20q76 20 137 49v-239q0 -33 -25.5 -63t-62.5 -53.5t-78 -36.5t-69 -13q-72 0 -136 41q-29 20 -52 53t-44 74l-102 -2 q43 -127 135 -205q90 -76 199 -76q49 0 107 23.5t109.5 63.5t85 90.5t33.5 103.5zM817 154q-45 -29 -117 -58q-68 -25 -161 -24q-162 0 -260 100q-98 98 -99 264q0 176 108.5 291t272.5 115q86 0 158 -31q72 -33 98 -51v-606z" />
<glyph unicode="h" horiz-adv-x="1003" d="M877 0v555q0 180 -95 281q-96 102 -256 102q-90 0 -161 -41q-70 -39 -140 -145v645h-98v-1397h98v649q51 78 119 135q70 57 182 58q123 0 189 -84q63 -86 63 -234v-524h99z" />
<glyph unicode="i" horiz-adv-x="385" d="M242 1229v168h-99v-168h99zM242 0v920h-99v-920h99z" />
<glyph unicode="j" horiz-adv-x="385" d="M238 1229v168h-99v-168h99zM238 -66v986h-99v-1016q0 -164 -49 -228q-51 -63 -139 -63h-8l26 -84q96 0 183 86q86 81 86 319z" />
<glyph unicode="k" horiz-adv-x="874" d="M948 0l-581 483l503 437h-129l-508 -437l582 -483h133zM219 0v483v914h-98v-1397h98z" />
<glyph unicode="l" horiz-adv-x="385" d="M242 0v1397h-99v-1397h99z" />
<glyph unicode="m" horiz-adv-x="1579" d="M1452 0v555q0 170 -82 276q-80 106 -215 107h-25q-119 0 -196 -72q-80 -74 -119 -147q-57 129 -129 174q-70 45 -147 45h-25q-88 0 -160 -41q-70 -41 -135 -145v168h-96v-920h98v647q25 39 52.5 74t60.5 63q68 57 168 58q117 0 178 -84q59 -84 59 -234v-524h99v627 q45 74 112 145q68 70 158 70q117 0 182 -84q63 -82 64 -234v-524h98z" />
<glyph unicode="n" horiz-adv-x="1003" d="M877 0v555q0 180 -95 281q-96 102 -256 102q-92 0 -164 -41q-70 -39 -139 -145v168h-96v-920h98v649q51 78 119 135q70 57 182 58q123 0 189 -84q63 -86 63 -234v-524h99z" />
<glyph unicode="o" horiz-adv-x="1110" d="M1024 459q0 203 -135 342q-131 137 -334 137q-201 0 -336 -137q-133 -139 -133 -342t135 -340q131 -137 334 -137q201 0 336 137q133 139 133 340zM920 459q0 -158 -107 -271q-109 -111 -258 -110q-152 0 -258 112q-106 109 -107 269q0 160 107 272q106 111 258 111 t258 -113q107 -108 107 -270z" />
<glyph unicode="p" horiz-adv-x="1044" d="M961 461q0 211 -132 344q-133 133 -335 133q-66 0 -136 -18q-74 -18 -129 -52v52h-100v-1391h98v522q35 -16 69 -29.5t69 -23.5q72 -16 149 -16q184 0 315.5 143t131.5 336zM852 459q0 -166 -102 -275q-100 -106 -269 -106q-88 0 -151 24q-59 20 -103 43v631 q14 8 37 18.5t55 22.5q61 25 150 25q164 0 274 -111q109 -108 109 -272z" />
<glyph unicode="q" horiz-adv-x="1044" d="M913 -471v1391h-96v-64q-66 39 -139 62q-68 20 -137 20q-205 0 -336 -141q-129 -141 -129 -363q0 -199 125 -325q127 -127 319 -127q88 0 158 20q76 20 137 49v-522h98zM817 154q-45 -29 -117 -58q-68 -25 -161 -24q-162 0 -260 100q-98 98 -99 264q0 176 108.5 291 t272.5 115q86 0 158 -31q72 -33 98 -51v-606z" />
<glyph unicode="r" horiz-adv-x="681" d="M764 827q-14 18 -78 64q-66 47 -133 47q-41 0 -83 -8t-85 -43q-41 -35 -81 -74t-77 -100v207h-98v-920h98v580q41 74 125 165q86 96 172 97q39 0 86 -29q23 -14 46.5 -32.5t50.5 -43.5z" />
<glyph unicode="s" horiz-adv-x="724" d="M662 238q0 111 -76 172q-80 63 -195 102q-90 33 -151 74q-55 39 -56 106q0 63 56 111q51 45 147 45q66 0 133 -29q33 -14 60.5 -30.5t52.5 -34.5v104q-31 27 -98 53q-35 12 -73 19.5t-83 7.5q-111 0 -201 -72q-88 -70 -88 -176q0 -98 62 -155q63 -61 176 -101 q150 -55 196 -98q43 -43 43 -96q0 -74 -57 -119q-59 -43 -145 -43q-72 0 -150 26q-78 25 -131 60v-98q37 -23 106 -56q74 -31 175 -30q127 0 210 75q87 77 87 183z" />
<glyph unicode="t" horiz-adv-x="618" d="M600 27v96q-43 -20 -84 -32.5t-78 -12.5q-88 0 -116 35q-27 33 -27 141v586h258v80h-258v305h-31l-67 -45v-260h-248v-80h248v-654q0 -96 57 -151q59 -53 158 -53q53 0 96 12q23 6 45 14.5z" />
<glyph unicode="u" horiz-adv-x="1003" d="M877 0v920h-99v-644q-35 -68 -114 -133q-78 -66 -185 -65q-121 0 -188 78q-66 78 -66 217v547h-98v-568q0 -180 96 -276q94 -94 269 -94q76 0 151 41q72 39 135 137v-160h99z" />
<glyph unicode="v" horiz-adv-x="874" d="M874 920h-96l-332 -775l-346 775h-100l418 -938h61z" />
<glyph unicode="w" horiz-adv-x="1449" d="M1448 920h-96l-320 -750l-289 750h-45l-288 -750l-314 750h-96l393 -938h45l285 747l283 -747h47z" />
<glyph unicode="x" horiz-adv-x="980" d="M987 920h-127l-360 -381l-361 381h-127l420 -449l-420 -471h127l361 403l360 -403h125l-420 471z" />
<glyph unicode="y" horiz-adv-x="854" d="M864 920h-100l-315 -644l-332 644h-107l389 -744l-321 -647h100z" />
<glyph unicode="z" horiz-adv-x="811" d="M788 0v90h-604l604 799l-8 31h-727v-91h576l-609 -798l11 -31h757z" />
<glyph unicode="{" horiz-adv-x="681" d="M588 -451v111h-33q-68 0 -109 41q-39 37 -38 143v258q0 162 -56 252q-55 84 -141 119q88 35 141 121q55 86 56 250v258q0 104 41 145q43 39 106 39h33v111h-27q-152 0 -211 -90q-57 -88 -57 -217v-297q0 -115 -47 -181q-45 -61 -144 -77v-123q98 -16 144 -78 q47 -66 47 -180v-297q0 -127 59.5 -217.5t208.5 -90.5h27z" />
<glyph unicode="|" horiz-adv-x="454" d="M274 -512v2048h-98v-2048h98z" />
<glyph unicode="}" horiz-adv-x="681" d="M582 412v123q-98 16 -146 77q-47 66 -47 181v297q0 127 -59.5 217t-208.5 90h-27v-111h33q68 0 109 -41q39 -37 38 -143v-258q0 -164 58 -252q55 -84 141 -119q-86 -35 -143 -121q-55 -86 -56 -250v-258q0 -104 -41 -145q-43 -39 -106 -39h-33v-111h27q152 0 211 91 q57 92 57 217v297q0 115 49 180q46 62 144 78z" />
<glyph unicode="~" horiz-adv-x="1351" d="M1217 803l-67 -45q-34 -23 -73 -45q-76 -47 -143 -47q-84 0 -250 82q-170 80 -266 79q-100 0 -182 -55l-66 -43q-25 -16 -33 -22v-113q27 23 58.5 45.5t72.5 44.5q82 47 152 47q84 0 250 -82q168 -80 266 -80q96 0 180 56l66 43q25 16 32 22z" />
<glyph unicode="&#xa1;" horiz-adv-x="362" d="M248 745v199h-133v-199h133zM248 -453l-35 1004h-63l-35 -1004h133z" />
<glyph unicode="&#xa2;" horiz-adv-x="854" d="M840 1307h-90l-134 -375q-35 6 -79 6q-207 0 -330 -141q-121 -139 -121 -338q0 -219 123 -348q37 -37 92 -72l-149 -426h90l139 393q57 -25 166 -24q78 0 149 18l59 17l38 12v102q-37 -16 -101 -35q-66 -18 -141 -18q-86 0 -137 22l256 723q2 -2 6 -2q29 -10 54.5 -18 t45.5 -19v109l-37 12q-18 6 -39 10zM584 840l-248 -703q-31 25 -49 43q-96 102 -97 279q0 168 97 276q94 106 252 107h24q11 0 21 -2z" />
<glyph unicode="&#xa3;" horiz-adv-x="1130" d="M1104 27v108q-27 -14 -51 -23l-47 -18q-41 -14 -101 -14q-23 0 -62.5 6t-99 16.5t-110.5 17.5t-96 3l-211 -14l137 520h246v96h-217l73 207q59 168 162 276q51 53 113.5 84t138.5 25l53 -4l55 -13l-49 97l-92 18q-186 0 -311 -155q-63 -78 -104.5 -157t-67.5 -157 l-74 -221h-196v-96h172q-4 0 -80 -291q-78 -289 -92 -301v-47l70 12l75 12q39 4 82 7.5t92 3.5q90 0 221 -23q121 -20 170 -20q70 0 119 14.5t82 30.5z" />
<glyph unicode="&#xa4;" horiz-adv-x="1386" d="M1362 115v112q-47 -27 -101.5 -52t-119.5 -48q-127 -45 -277 -45q-279 0 -452 172q-88 88 -133 203h1015v82h-1040q-16 78 -16 159q0 117 32 209h1024v82h-989q39 82 111 150q176 176 442 176q135 0 258 -39q131 -41 230 -98v120q-102 53 -232 86q-129 31 -237 31 q-324 0 -541 -205q-104 -102 -156 -221h-164v-82h134q-29 -102 -29 -209q0 -41 3 -82t11 -77h-119v-82h142q53 -158 178 -275q213 -201 547 -200q121 0 250 38q66 20 124 43t105 52z" />
<glyph unicode="&#x20ac;" horiz-adv-x="1386" d="M1362 115v112q-47 -27 -101.5 -52t-119.5 -48q-127 -45 -277 -45q-279 0 -452 172q-88 88 -133 203h1015v82h-1040q-16 78 -16 159q0 117 32 209h1024v82h-989q39 82 111 150q176 176 442 176q135 0 258 -39q131 -41 230 -98v120q-102 53 -232 86q-129 31 -237 31 q-324 0 -541 -205q-104 -102 -156 -221h-164v-82h134q-29 -102 -29 -209q0 -41 3 -82t11 -77h-119v-82h142q53 -158 178 -275q213 -201 547 -200q121 0 250 38q66 20 124 43t105 52z" />
<glyph unicode="&#xa5;" horiz-adv-x="1138" d="M1137 1466h-144l-418 -725l-423 725h-148l436 -725h-377v-96h435l8 -14v-142h-443v-96h443v-393h131v393h434v96h-434v142l8 14h426v96h-369z" />
<glyph unicode="&#xa6;" horiz-adv-x="454" d="M274 666v870h-98v-870h98zM274 -512v870h-98v-870h98z" />
<glyph unicode="&#xa7;" horiz-adv-x="811" d="M758 365q0 100 -51 184q-47 84 -142 168l-190 170q-76 70 -115 135q-39 63 -39 127q0 88 64 133q59 45 129 45q57 0 108 -35q49 -37 64 -102h104q-20 121 -102 174q-76 51 -164 51q-129 0 -217 -72q-84 -72 -84 -200q0 -66 28.5 -129.5t75.5 -116.5q-78 -70 -129 -158 q-47 -88 -47 -159q0 -100 51 -185q25 -43 61 -85t83 -83l188 -170q76 -70 115 -135q41 -66 41 -127q0 -88 -63.5 -133t-131.5 -45q-57 0 -108 35q-47 35 -62 102h-104q20 -123 100 -174q76 -51 166 -51q129 0 217 72q84 72 84 200q0 66 -28.5 129.5t-75.5 116.5 q78 72 127 158q47 88 47 160zM655 365q0 -61 -26 -117q-14 -29 -41 -62.5t-68 -70.5l-256 233q-16 16 -33.5 40l-37.5 54q-39 57 -39 142q0 61 26 116q14 29 41 63t68 71l256 -234q16 -16 33.5 -39.5t37.5 -54.5q39 -57 39 -141z" />
<glyph unicode="&#xa8;" horiz-adv-x="681" d="M551 1143v139h-139v-139h139zM270 1143v139h-139v-139h139z" />
<glyph unicode="&#xa9;" horiz-adv-x="1638" d="M1581 729q0 315 -223 538.5t-541 223.5q-315 0 -538.5 -223.5t-223.5 -540.5q0 -315 223.5 -538.5t540.5 -223.5q315 0 538.5 223.5t223.5 540.5zM1485 727q0 -274 -197 -471q-195 -195 -471 -195q-274 0 -471 197q-195 195 -194 471q0 274 196 471q195 195 471 195 q274 0 471 -197q195 -195 195 -471zM1159 553l-90 33q-27 -90 -92 -150q-66 -55 -154 -55q-137 0 -207 104q-72 106 -71 258q0 135 76 226q74 92 213 92q78 0 135 -45q57 -47 86 -121l96 25q-45 100 -125 161q-82 63 -188 64q-180 0 -291 -119q-109 -119 -109 -293 q0 -199 113 -319q111 -123 278 -123q115 0 205 71q92 74 125 191z" />
<glyph unicode="&#xaa;" horiz-adv-x="575" d="M567 891v49q-10 -6 -20 -13t-25 -16q-29 -18 -45 -20l-12 24v349q0 74 -51 112q-47 39 -140 39q-66 0 -122 -24q-57 -23 -72 -37v-60q10 8 27.5 19.5t44.5 25.5q53 27 116 27t99 -27q35 -29 34 -90v-69q-82 -2 -125 -13q-20 -4 -39.5 -9t-39.5 -11q-61 -20 -107 -66 q-43 -41 -43 -112q0 -57 49 -97q47 -41 123 -41q43 0 98 23q47 18 84 51q0 -33 11 -53q8 -18 32 -18q29 0 68 22q18 10 31.5 18.5t23.5 16.5zM401 954l-31 -22l-40 -27q-43 -25 -99 -24q-55 0 -90 28q-31 25 -30 64q0 51 39 84q43 37 92 51q31 10 55.5 14t40.5 6t33 2h30 v-176z" />
<glyph unicode="&#xab;" d="M987 12l-387 461l383 461h-125l-383 -461l387 -461h125zM553 12l-387 461l383 461h-125l-383 -461l387 -461h125z" />
<glyph unicode="&#xac;" horiz-adv-x="1376" d="M932 1004q-29 10 -48 19l-39 18q-19 9 -43 22l-57 31l57 28l43 22l39 18q19 9 48 20l-39 69q-29 -23 -47 -34l-35 -23q-16 -12 -38 -26l-52 -31q2 37 3 62.5t3 47t3 43t5 51.5h-76l6.5 -52t3.5 -42.5t1 -48.5q0 -25 2 -61l-52 31q-22 13 -38 26l-35 23q-18 12 -47 34 l-37 -69q27 -10 47 -19.5l39 -18.5l41 -22q23 -12 57 -28l-57 -31l-41 -22q-18 -9 -39 -18t-47 -19l37 -72q29 23 46 35l36 24l38 24l52 34q-2 -39 -2 -66q0 -25 -1 -46.5t-3 -42t-7 -50.5h76q-4 31 -5 51t-3 41.5t-3 47.5t-3 65l52 -34l38 -24l36 -24q17 -12 46 -35z M1321 -90h-621l-4 565l406 498v-973h102v1128h-98l-418 -512l-420 512h-100v-1128h104v973l404 -494l-53 -51v-563l-283 291l-57 -56l594 -618l59 57l-285 295l594 2z" />
<glyph unicode="&#xad;" horiz-adv-x="641" d="M563 463v96h-485v-96h485z" />
<glyph unicode="&#xae;" horiz-adv-x="1638" d="M1581 729q0 315 -223 538.5t-541 223.5q-315 0 -538.5 -223.5t-223.5 -540.5q0 -315 223.5 -538.5t540.5 -223.5q315 0 538.5 223.5t223.5 540.5zM1485 727q0 -274 -197 -471q-195 -195 -471 -195q-274 0 -471 197q-195 195 -194 471q0 274 196 471q195 195 471 195 q274 0 471 -197q195 -195 195 -471zM1147 317l-57 129l-32 68q-15 33 -38 66q-39 63 -133 104q111 12 168 74q59 59 59 149q0 92 -65 154q-66 59 -228 59h-309v-803h98v353h78q123 0 190.5 -82t145.5 -271h123zM999 901q0 -74 -51 -113q-47 -39 -190 -38h-148v290h172 q100 0 160 -30q57 -27 57 -109z" />
<glyph unicode="&#xaf;" horiz-adv-x="681" d="M612 1171v105h-544v-105h544z" />
<glyph unicode="&#xb0;" horiz-adv-x="819" d="M696 1130q0 117 -84 201t-202 84q-117 0 -201 -84t-84 -203q0 -117 84 -200.5t203 -83.5q117 0 200.5 83.5t83.5 202.5zM614 1128q0 -84 -59 -143t-145 -59q-84 0 -143.5 59t-59.5 145q0 84 59.5 143.5t145.5 59.5q84 0 143 -59.5t59 -145.5z" />
<glyph unicode="&#xb1;" horiz-adv-x="1351" d="M1212 674v90h-491v491h-90v-491h-492v-90h492v-492h90v492h491zM1212 0v90h-1073v-90h1073z" />
<glyph unicode="&#xb2;" horiz-adv-x="641" d="M618 680v49h-415l55 53l53 54l49 52q25 26 48 56q20 23 40.5 50.5t43.5 66.5q41 78 40 143q0 90 -75 152q-76 59 -187 59q-72 0 -129 -22q-53 -23 -80 -43v-66l45 32q23 15 48 25q49 23 110 23q86 0 143.5 -45t57.5 -115q0 -63 -33 -123q-16 -31 -36.5 -61.5t-45.5 -61.5 q-35 -41 -67.5 -74.5t-65.5 -62.5l-69 -60l-76 -67v-14h546z" />
<glyph unicode="&#xb3;" horiz-adv-x="641" d="M555 885q0 63 -47 110q-49 49 -129 70q88 25 127 70q37 45 37 96q0 80 -74 133q-70 51 -184 51q-80 0 -129 -18q-47 -14 -68 -29v-51l27 11l41 18q45 18 118 18q86 0 146 -41q57 -39 57 -96q0 -61 -63.5 -100.5t-149.5 -39.5h-8v-51h14q98 0 160 -45q57 -43 57 -114 q0 -70 -59 -113t-149 -43q-68 0 -119 12q-25 6 -44.5 12.5t-33.5 10.5v-49q27 -10 82 -25q57 -12 121 -12q117 0 194 59q76 58 76 156z" />
<glyph unicode="&#xb4;" horiz-adv-x="681" d="M692 1386h-166l-213 -319h66z" />
<glyph unicode="&#xb5;" horiz-adv-x="1138" d="M942 0v920h-98v-644q-33 -66 -113 -133q-78 -66 -178 -65q-119 0 -184 78q-63 76 -64 217v547h-98v-1282h98v466q39 -55 107 -88q74 -35 159 -34q72 0 144 41q70 39 129 137v-160h98z" />
<glyph unicode="&#xb6;" horiz-adv-x="1331" d="M1272 1327v139h-697q-215 0 -346 -114q-129 -115 -129 -308q0 -195 123 -307q119 -113 328 -112v-1033h131v1735h264v-1735h131v1735h195z" />
<glyph unicode="&#xb7;" horiz-adv-x="575" d="M246 608v201h-131v-201h131z" />
<glyph unicode="&#x2219;" horiz-adv-x="575" d="M246 608v201h-131v-201h131z" />
<glyph unicode="&#xb8;" horiz-adv-x="681" d="M508 -207q0 55 -37 96q-37 39 -90 39l25 88h-62l-43 -143q61 0 94 -20.5t33 -61.5t-35 -59q-39 -20 -98 -19l-68 4l-10 -65l92 -10q88 0 144 43q55 38 55 108z" />
<glyph unicode="&#xb9;" horiz-adv-x="641" d="M354 680l-2 727h-67l2 -727h67z" />
<glyph unicode="&#xba;" horiz-adv-x="724" d="M672 1124q0 127 -88 209q-92 82 -222 82q-131 0 -221 -84q-88 -82 -88 -207q0 -127 88 -208.5t221 -81.5q131 0 222 84q88 81 88 206zM602 1124q0 -96 -70 -166q-72 -68 -170 -67q-102 0 -172 70q-70 68 -69 163q0 94 72 166q70 68 169 68q100 0 170 -70q70 -68 70 -164z " />
<glyph unicode="&#xbb;" d="M983 473l-383 461h-125l383 -461l-387 -461h125zM549 473l-383 461h-125l383 -461l-387 -461h125z" />
<glyph unicode="&#xbc;" horiz-adv-x="1705" d="M1229 633v-309h-318zM1417 281v43h-123v411h-26l-449 -436v-18h410v-281h65v281h123zM1284 1415h-82l-1075 -1470h80zM367 680l-2 727h-68l2 -727h68z" />
<glyph unicode="&#xbd;" horiz-adv-x="1705" d="M1528 0v49h-416l55 53l54 54l49 52q25 26 47 56q20 23 40.5 50.5t43.5 66.5q41 78 41 143q0 90 -76 152q-76 59 -186 59q-72 0 -129 -22q-53 -23 -80 -43v-66l45 32q23 15 47 26q49 23 111 22q86 0 143 -45t57 -115q0 -63 -33 -123q-16 -31 -36.5 -61.5t-44.5 -60.5 q-35 -41 -68 -75t-66 -63l-68 -60l-77 -67v-14h547zM1284 1415h-82l-1075 -1470h80zM367 680l-2 727h-68l2 -727h68z" />
<glyph unicode="&#xbe;" horiz-adv-x="1705" d="M1346 633v-309h-318zM1534 281v43h-123v411h-27l-448 -436v-18h410v-281h65v281h123zM1389 1415h-82l-1076 -1470h80zM592 885q0 63 -47 110q-49 49 -129 70q88 25 127 70q37 45 37 96q0 80 -74 133q-70 51 -184 51q-80 0 -129 -18q-47 -14 -68 -29v-51l27 11l41 18 q45 18 118 18q86 0 146 -41q57 -39 57 -96q0 -61 -63.5 -100.5t-149.5 -39.5h-8v-51h14q98 0 160 -45q57 -43 57 -114q0 -70 -59 -113t-150 -43q-68 0 -118 12q-25 6 -44.5 12.5t-33.5 10.5v-49q27 -10 82 -25q57 -12 121 -12q117 0 194 59q76 58 76 156z" />
<glyph unicode="&#xbf;" horiz-adv-x="575" d="M375 768v199h-133v-199h133zM494 -391l-35 88q-4 -2 -28.5 -15.5t-59.5 -28.5t-56 -15q-68 0 -112 57q-43 55 -43 135q0 90 41 176q39 82 110 197q49 80 70 135q16 55 16 113q0 47 -26 98q-23 47 -54 80l-34 -31q14 -27 21 -46.5t11 -29.5q2 -10 3 -22.5t1 -24.5 q0 -47 -14 -90q-14 -45 -61 -113q-102 -147 -146 -231q-43 -86 -43 -201q0 -117 64 -205q63 -86 194 -86q49 0 84 15q10 4 35 15l42 20q18 8 20 10z" />
<glyph unicode="&#xc0;" horiz-adv-x="1366" d="M879 1513l-213 320h-166l313 -320h66zM1356 0l-643 1407h-60l-645 -1407h113l221 483h682l221 -483h111zM983 573h-600l299 658z" />
<glyph unicode="&#xc1;" horiz-adv-x="1366" d="M1034 1833h-166l-213 -320h66zM1356 0l-643 1407h-60l-645 -1407h113l221 483h682l221 -483h111zM983 573h-600l299 658z" />
<glyph unicode="&#xc2;" horiz-adv-x="1366" d="M965 1495l-224 336h-118l-222 -336h78l203 221l205 -221h78zM1356 0l-643 1407h-60l-645 -1407h113l221 483h682l221 -483h111zM983 573h-600l299 658z" />
<glyph unicode="&#xc3;" horiz-adv-x="1366" d="M1016 1761h-64q-10 -57 -34 -78q-23 -20 -52 -20q-51 0 -168 51q-117 49 -182 49q-84 0 -127 -57q-41 -59 -41 -137h66q6 57 32.5 77.5t53.5 20.5q49 0 166 -51q117 -49 182 -49q88 0 127 57q41 59 41 137zM1356 0l-643 1407h-60l-645 -1407h113l221 483h682l221 -483 h111zM983 573h-600l299 658z" />
<glyph unicode="&#xc4;" horiz-adv-x="1366" d="M895 1589v140h-139v-140h139zM614 1589v140h-139v-140h139zM1356 0l-643 1407h-60l-645 -1407h113l221 483h682l221 -483h111zM983 573h-600l299 658z" />
<glyph unicode="&#xc5;" horiz-adv-x="1366" d="M862 1659q0 72 -53 125q-51 51 -125 51t-125 -51t-51 -125t51 -125t125 -51q76 0 127 51t51 125zM807 1659q0 -53 -37 -86q-35 -35 -86 -35t-86 35t-35 86t35 86t86 35q49 0 88 -35q35 -35 35 -86zM1356 0l-643 1407h-60l-645 -1407h113l221 483h682l221 -483h111z M983 573h-600l299 658z" />
<glyph unicode="&#xc6;" horiz-adv-x="1771" d="M1688 0v90h-670v567l637 2v89h-637v559h655v90h-829l-873 -1397h117l412 659h409v-659h779zM909 750h-350l350 569v-569z" />
<glyph unicode="&#xc7;" horiz-adv-x="1386" d="M907 -207q0 55 -37 96q-37 39 -90 39l17 56q16 -2 32 -2h33q121 0 250 38q66 20 124 43t105 52v112q-47 -27 -101 -52t-120 -48q-127 -45 -276 -45q-279 0 -453 172t-174 444q0 264 178 441q176 176 443 176q135 0 258 -39q131 -41 229 -98v120q-102 53 -231 86 q-129 31 -238 31q-324 0 -541 -205q-215 -207 -215 -512q0 -317 215 -516q174 -162 420 -192l-35 -117q61 0 94 -20.5t33 -61.5t-34 -59q-39 -20 -99 -19l-67 4l-11 -65l93 -10q88 0 143 43q55 38 55 108z" />
<glyph unicode="&#xc8;" horiz-adv-x="1003" d="M723 1513l-213 320h-166l313 -320h66zM942 0v90h-670v567l637 2v89h-637v559h656v90h-764v-1397h778z" />
<glyph unicode="&#xc9;" horiz-adv-x="1003" d="M879 1833h-166l-213 -320h65zM942 0v90h-670v567l637 2v89h-637v559h656v90h-764v-1397h778z" />
<glyph unicode="&#xca;" horiz-adv-x="1003" d="M809 1495l-223 336h-119l-221 -336h78l202 221l205 -221h78zM942 0v90h-670v567l637 2v89h-637v559h656v90h-764v-1397h778z" />
<glyph unicode="&#xcb;" horiz-adv-x="1003" d="M739 1589v140h-139v-140h139zM459 1589v140h-140v-140h140zM942 0v90h-670v567l637 2v89h-637v559h656v90h-764v-1397h778z" />
<glyph unicode="&#xcc;" horiz-adv-x="425" d="M412 1513l-213 320h-166l313 -320h66zM266 0v1397h-106v-1397h106z" />
<glyph unicode="&#xcd;" horiz-adv-x="425" d="M567 1833h-166l-213 -320h66zM266 0v1397h-106v-1397h106z" />
<glyph unicode="&#xce;" horiz-adv-x="425" d="M498 1495l-224 336h-118l-222 -336h78l203 221l205 -221h78zM266 0v1397h-106v-1397h106z" />
<glyph unicode="&#xcf;" horiz-adv-x="425" d="M428 1589v140h-139v-140h139zM147 1589v140h-139v-140h139zM266 0v1397h-106v-1397h106z" />
<glyph unicode="&#xd0;" horiz-adv-x="1515" d="M1411 696q0 326 -203 514q-199 182 -549 187l-497 6v-658h-209v-90h209v-655h512q348 0 542.5 194.5t194.5 501.5zM1294 696q0 -274 -178 -440t-471 -166h-375v565h453v90h-453v562h379q293 0 469 -168q176 -171 176 -443z" />
<glyph unicode="&#xd1;" horiz-adv-x="1579" d="M1130 1761h-63q-10 -57 -35 -78q-23 -20 -51 -20q-51 0 -168 51q-117 49 -182 49q-84 0 -127 -57q-41 -59 -41 -137h65q6 57 33 77.5t53 20.5q49 0 166 -51q117 -49 183 -49q88 0 127 57q40 59 40 137zM1421 0v1397h-108v-1225l-264 311l-267 301l-266 301l-264 312h-92 v-1397h108v1221l1061 -1221h92z" />
<glyph unicode="&#xd2;" horiz-adv-x="1685" d="M1038 1513l-213 320h-166l314 -320h65zM1583 698q0 305 -213 512q-215 205 -526 205q-315 0 -529 -207q-211 -205 -211 -510t213 -512q211 -205 527 -204q313 0 526 206.5t213 509.5zM1466 698q0 -254 -182 -436q-180 -180 -440 -180q-262 0 -442.5 180t-180.5 436 q0 254 182 437q180 180 441 180q260 0 440 -180q182 -183 182 -437z" />
<glyph unicode="&#xd3;" horiz-adv-x="1685" d="M1194 1833h-166l-213 -320h66zM1583 698q0 305 -213 512q-215 205 -526 205q-315 0 -529 -207q-211 -205 -211 -510t213 -512q211 -205 527 -204q313 0 526 206.5t213 509.5zM1466 698q0 -254 -182 -436q-180 -180 -440 -180q-262 0 -442.5 180t-180.5 436q0 254 182 437 q180 180 441 180q260 0 440 -180q182 -183 182 -437z" />
<glyph unicode="&#xd4;" horiz-adv-x="1685" d="M1124 1495l-223 336h-119l-221 -336h78l203 221l205 -221h77zM1583 698q0 305 -213 512q-215 205 -526 205q-315 0 -529 -207q-211 -205 -211 -510t213 -512q211 -205 527 -204q313 0 526 206.5t213 509.5zM1466 698q0 -254 -182 -436q-180 -180 -440 -180 q-262 0 -442.5 180t-180.5 436q0 254 182 437q180 180 441 180q260 0 440 -180q182 -183 182 -437z" />
<glyph unicode="&#xd5;" horiz-adv-x="1685" d="M1176 1761h-64q-10 -57 -35 -78q-23 -20 -51 -20q-51 0 -168 51q-117 49 -182 49q-84 0 -127 -57q-41 -59 -41 -137h65q6 57 33 77.5t53 20.5q49 0 166 -51q117 -49 183 -49q88 0 127 57q41 59 41 137zM1583 698q0 305 -213 512q-215 205 -526 205q-315 0 -529 -207 q-211 -205 -211 -510t213 -512q211 -205 527 -204q313 0 526 206.5t213 509.5zM1466 698q0 -254 -182 -436q-180 -180 -440 -180q-262 0 -442.5 180t-180.5 436q0 254 182 437q180 180 441 180q260 0 440 -180q182 -183 182 -437z" />
<glyph unicode="&#xd6;" horiz-adv-x="1685" d="M1055 1589v140h-140v-140h140zM774 1589v140h-139v-140h139zM1583 698q0 305 -213 512q-215 205 -526 205q-315 0 -529 -207q-211 -205 -211 -510t213 -512q211 -205 527 -204q313 0 526 206.5t213 509.5zM1466 698q0 -254 -182 -436q-180 -180 -440 -180 q-262 0 -442.5 180t-180.5 436q0 254 182 437q180 180 441 180q260 0 440 -180q182 -183 182 -437z" />
<glyph unicode="&#xd7;" horiz-adv-x="1351" d="M1087 373l-346 346l346 346l-65 65l-346 -346l-346 346l-66 -65l346 -346l-346 -346l66 -66l346 346l346 -346z" />
<glyph unicode="&#xd8;" horiz-adv-x="1685" d="M1583 698q0 303 -211 508l135 150l-75 53l-129 -143q-186 150 -459 149q-315 0 -529 -207q-211 -205 -211 -510q0 -301 211 -512l9 -8l-131 -145l75 -53l127 141q182 -139 449 -139q313 0 526 206.5t213 509.5zM1466 698q0 -254 -182 -436q-180 -180 -440 -180 q-217 0 -375 121l827 919q170 -176 170 -424zM1229 1184l-830 -920q-178 178 -178 434q0 254 182 437q180 180 441 180q227 0 385 -131z" />
<glyph unicode="&#xd9;" horiz-adv-x="1429" d="M909 1513l-213 320h-166l314 -320h65zM1300 606v791h-108v-783q0 -244 -129 -387q-127 -145 -344 -145q-219 0 -350 141q-129 141 -129 381v793h-109v-801q0 -270 164 -444q164 -170 422 -170t422 176q161 178 161 448z" />
<glyph unicode="&#xda;" horiz-adv-x="1429" d="M1065 1833h-166l-213 -320h66zM1300 606v791h-108v-783q0 -244 -129 -387q-127 -145 -344 -145q-219 0 -350 141q-129 141 -129 381v793h-109v-801q0 -270 164 -444q164 -170 422 -170t422 176q161 178 161 448z" />
<glyph unicode="&#xdb;" horiz-adv-x="1429" d="M995 1495l-223 336h-119l-221 -336h78l203 221l205 -221h77zM1300 606v791h-108v-783q0 -244 -129 -387q-127 -145 -344 -145q-219 0 -350 141q-129 141 -129 381v793h-109v-801q0 -270 164 -444q164 -170 422 -170t422 176q161 178 161 448z" />
<glyph unicode="&#xdc;" horiz-adv-x="1429" d="M926 1589v140h-140v-140h140zM645 1589v140h-139v-140h139zM1300 606v791h-108v-783q0 -244 -129 -387q-127 -145 -344 -145q-219 0 -350 141q-129 141 -129 381v793h-109v-801q0 -270 164 -444q164 -170 422 -170t422 176q161 178 161 448z" />
<glyph unicode="&#xdd;" horiz-adv-x="1193" d="M946 1833h-166l-213 -320h66zM1194 1397h-131l-465 -553l-467 553h-131l543 -647v-750h108v750z" />
<glyph unicode="&#xde;" horiz-adv-x="1044" d="M268 420v561h281q156 0 246 -76q90 -74 90 -205q0 -139 -92 -208q-90 -72 -256 -72h-269zM999 698q0 182 -120 279q-123 94 -338 94h-273v326h-108v-1397h108v328h277q213 0 333.5 96t120.5 274z" />
<glyph unicode="&#xdf;" d="M942 408q0 154 -72 243q-74 92 -178 125q102 43 146 135q41 94 41 166q0 150 -106.5 244t-272.5 94q-164 0 -268.5 -104.5t-104.5 -323.5v-987h98v918q0 258 76 335q74 80 193 80q117 0 198 -63q82 -61 82 -201q0 -106 -55 -176q-55 -72 -144 -72h-16v-92 q156 -18 217 -108q59 -90 60 -213q0 -139 -70 -234q-68 -96 -195 -96q-39 0 -75 10l-29 7q-12 3 -21 7v-102q20 -6 50 -12q27 -6 67 -6q174 0 276.5 127t102.5 299z" />
<glyph unicode="&#xe0;" horiz-adv-x="989" d="M631 1067l-213 319h-166l313 -319h66zM913 -4v924h-96v-64q-66 39 -139 62q-68 20 -137 20q-205 0 -336 -141q-129 -141 -129 -363q0 -199 125 -325q127 -127 319 -127q88 0 158 20q76 20 137 49v-55h98zM817 154q-45 -29 -117 -58q-68 -25 -161 -24q-162 0 -260 100 q-98 98 -99 264q0 176 108.5 291t272.5 115q86 0 158 -31q72 -33 98 -51v-606z" />
<glyph unicode="&#xe1;" horiz-adv-x="970" d="M786 1386h-165l-213 -319h65zM913 -4v924h-96v-64q-66 39 -139 62q-68 20 -137 20q-205 0 -336 -141q-129 -141 -129 -363q0 -199 125 -325q127 -127 319 -127q88 0 158 20q76 20 137 49v-55h98zM817 154q-45 -29 -117 -58q-68 -25 -161 -24q-162 0 -260 100 q-98 98 -99 264q0 176 108.5 291t272.5 115q86 0 158 -31q72 -33 98 -51v-606z" />
<glyph unicode="&#xe2;" horiz-adv-x="1009" d="M799 1049l-224 335h-118l-221 -335h77l203 221l205 -221h78zM913 -4v924h-96v-64q-66 39 -139 62q-68 20 -137 20q-205 0 -336 -141q-129 -141 -129 -363q0 -199 125 -325q127 -127 319 -127q88 0 158 20q76 20 137 49v-55h98zM817 154q-45 -29 -117 -58 q-68 -25 -161 -24q-162 0 -260 100q-98 98 -99 264q0 176 108.5 291t272.5 115q86 0 158 -31q72 -33 98 -51v-606z" />
<glyph unicode="&#xe3;" horiz-adv-x="987" d="M850 1315h-64q-10 -57 -34 -78q-23 -20 -52 -20q-51 0 -168 51q-117 49 -182 49q-84 0 -127 -57q-41 -59 -41 -138h66q6 57 32.5 78t53.5 21q49 0 166 -52q117 -49 182 -49q88 0 127 58q41 59 41 137zM913 -4v924h-96v-64q-66 39 -139 62q-68 20 -137 20 q-205 0 -336 -141q-129 -141 -129 -363q0 -199 125 -325q127 -127 319 -127q88 0 158 20q76 20 137 49v-55h98zM817 154q-45 -29 -117 -58q-68 -25 -161 -24q-162 0 -260 100q-98 98 -99 264q0 176 108.5 291t272.5 115q86 0 158 -31q72 -33 98 -51v-606z" />
<glyph unicode="&#xe4;" horiz-adv-x="1003" d="M729 1143v139h-139v-139h139zM449 1143v139h-140v-139h140zM913 -4v924h-96v-64q-66 39 -139 62q-68 20 -137 20q-205 0 -336 -141q-129 -141 -129 -363q0 -199 125 -325q127 -127 319 -127q88 0 158 20q76 20 137 49v-55h98zM817 154q-45 -29 -117 -58q-68 -25 -161 -24 q-162 0 -260 100q-98 98 -99 264q0 176 108.5 291t272.5 115q86 0 158 -31q72 -33 98 -51v-606z" />
<glyph unicode="&#xe5;" horiz-adv-x="874" d="M717 1212q0 72 -53 125q-51 51 -125 52q-74 0 -125.5 -51.5t-51.5 -125.5t51.5 -125t125.5 -51q76 0 127 51t51 125zM662 1212q0 -53 -37 -86q-35 -35 -86 -34q-51 0 -86 34.5t-35 85.5t34.5 86t86.5 35q49 0 88 -35q35 -35 35 -86zM913 -4v924h-96v-64q-66 39 -139 62 q-68 20 -137 20q-205 0 -336 -141q-129 -141 -129 -363q0 -199 125 -325q127 -127 319 -127q88 0 158 20q76 20 137 49v-55h98zM817 154q-45 -29 -117 -58q-68 -25 -161 -24q-162 0 -260 100q-98 98 -99 264q0 176 108.5 291t272.5 115q86 0 158 -31q72 -33 98 -51v-606z " />
<glyph unicode="&#xe6;" horiz-adv-x="1536" d="M1491 494q0 195 -100.5 319.5t-257.5 124.5q-88 0 -154 -35q-12 -6 -27.5 -18.5t-29.5 -26.5l-28 -28l-22 -21v111h-96v-64q-66 39 -139 62q-68 20 -137 20q-205 0 -336 -141q-129 -141 -129 -363q0 -199 125 -325q127 -127 319 -127q88 0 158 20q76 20 137 49v-55h98 v127q23 -25 60 -58.5t63 -46.5q70 -37 158 -36q102 0 188 41q41 20 74 40.5t58 40.5v111q-18 -18 -47 -39.5l-68 -48.5q-78 -49 -170 -49q-139 0 -230 108q-68 76 -86 187v121h619zM1370 573h-493q20 94 63 160q74 109 197 109q102 0 161 -72q58 -72 72 -197zM776 154 q-45 -29 -117 -58q-68 -25 -161 -24q-162 0 -260 100q-98 98 -99 264q0 176 108.5 291t272.5 115q86 0 158 -31q72 -33 98 -51v-606z" />
<glyph unicode="&#xe7;" horiz-adv-x="854" d="M608 -207q0 55 -37 96q-37 39 -90 39l17 56q10 -2 22 -2h27q78 0 149 18l59 17l38 12v102q-37 -16 -101 -35q-66 -18 -141 -18q-170 0 -264 104q-96 102 -97 277q0 168 97 276q94 106 252 107q82 0 137 -21q29 -10 54.5 -18t45.5 -19v109q-29 10 -56 17l-56 16 q-59 12 -127 12q-207 0 -330 -141q-121 -139 -121 -338q0 -219 123 -348q88 -94 227 -119l-35 -119q61 0 94 -20.5t33 -61.5t-34 -59q-39 -20 -99 -19l-67 4l-11 -65l93 -10q88 0 143 43q55 38 55 108z" />
<glyph unicode="&#xe8;" horiz-adv-x="980" d="M686 1067l-213 319h-166l314 -319h65zM913 494q0 193 -114 319q-113 125 -293 125q-186 0 -305 -135q-119 -133 -119 -330q0 -215 133 -354q131 -137 340 -137q109 0 201 41q45 20 78.5 40.5t60.5 40.5v111q-20 -18 -53 -39.5l-78 -48.5q-90 -49 -201 -49 q-162 0 -270 108q-109 104 -109 267v22q0 10 2 19h727zM793 573h-596q29 100 75 160q88 109 236 109q123 0 194 -72q68 -68 91 -197z" />
<glyph unicode="&#xe9;" horiz-adv-x="980" d="M842 1386h-166l-213 -319h65zM913 494q0 193 -114 319q-113 125 -293 125q-186 0 -305 -135q-119 -133 -119 -330q0 -215 133 -354q131 -137 340 -137q109 0 201 41q45 20 78.5 40.5t60.5 40.5v111q-20 -18 -53 -39.5l-78 -48.5q-90 -49 -201 -49q-162 0 -270 108 q-109 104 -109 267v22q0 10 2 19h727zM793 573h-596q29 100 75 160q88 109 236 109q123 0 194 -72q68 -68 91 -197z" />
<glyph unicode="&#xea;" horiz-adv-x="980" d="M772 1049l-223 335h-119l-221 -335h78l202 221l205 -221h78zM913 494q0 193 -114 319q-113 125 -293 125q-186 0 -305 -135q-119 -133 -119 -330q0 -215 133 -354q131 -137 340 -137q109 0 201 41q45 20 78.5 40.5t60.5 40.5v111q-20 -18 -53 -39.5l-78 -48.5 q-90 -49 -201 -49q-162 0 -270 108q-109 104 -109 267v22q0 10 2 19h727zM793 573h-596q29 100 75 160q88 109 236 109q123 0 194 -72q68 -68 91 -197z" />
<glyph unicode="&#xeb;" horiz-adv-x="980" d="M702 1143v139h-139v-139h139zM422 1143v139h-139v-139h139zM913 494q0 193 -114 319q-113 125 -293 125q-186 0 -305 -135q-119 -133 -119 -330q0 -215 133 -354q131 -137 340 -137q109 0 201 41q45 20 78.5 40.5t60.5 40.5v111q-20 -18 -53 -39.5l-78 -48.5 q-90 -49 -201 -49q-162 0 -270 108q-109 104 -109 267v22q0 10 2 19h727zM793 573h-596q29 100 75 160q88 109 236 109q123 0 194 -72q68 -68 91 -197z" />
<glyph unicode="&#xec;" horiz-adv-x="385" d="M387 1067l-213 319h-166l314 -319h65zM242 0v920h-99v-920h99z" />
<glyph unicode="&#xed;" horiz-adv-x="385" d="M461 1386h-166l-213 -319h65zM242 0v920h-99v-920h99z" />
<glyph unicode="&#xee;" horiz-adv-x="385" d="M473 1049l-223 335h-119l-221 -335h78l202 221l205 -221h78zM242 0v920h-99v-920h99z" />
<glyph unicode="&#xef;" horiz-adv-x="385" d="M403 1143v139h-139v-139h139zM123 1143v139h-139v-139h139zM242 0v920h-99v-920h99z" />
<glyph unicode="&#xf0;" horiz-adv-x="1144" d="M1073 508q0 303 -162 539q-29 41 -66.5 82.5t-90.5 89.5l235 110l-33 68l-270 -127q-86 68 -242 125l-36 -70q61 -29 107 -54.5t75 -45.5l-256 -119l31 -68l297 138q78 -61 108 -99q117 -125 176 -305q-84 88 -172 129q-90 37 -190 37q-221 0 -365 -137 q-141 -139 -141 -346q0 -203 143 -340q143 -135 361 -135q217 0 356 147q135 148 135 381zM969 469q0 -178 -109 -293q-106 -113 -280 -113q-172 0 -291 113q-117 113 -117 277q0 168 115 286q113 117 291 117q172 0 282 -111q109 -112 109 -276z" />
<glyph unicode="&#xf1;" horiz-adv-x="1003" d="M838 1315h-64q-10 -57 -35 -78q-23 -20 -51 -20q-51 0 -168 51q-117 49 -182 49q-84 0 -127 -57q-41 -59 -41 -138h66q6 57 32.5 78t53.5 21q49 0 165 -52q117 -49 183 -49q88 0 127 58q41 59 41 137zM877 0v555q0 180 -95 281q-96 102 -256 102q-92 0 -164 -41 q-70 -39 -139 -145v168h-96v-920h98v649q51 78 119 135q70 57 182 58q123 0 189 -84q63 -86 63 -234v-524h99z" />
<glyph unicode="&#xf2;" horiz-adv-x="1110" d="M752 1067l-213 319h-166l313 -319h66zM1024 459q0 203 -135 342q-131 137 -334 137q-201 0 -336 -137q-133 -139 -133 -342t135 -340q131 -137 334 -137q201 0 336 137q133 139 133 340zM920 459q0 -158 -107 -271q-109 -111 -258 -110q-152 0 -258 112 q-106 109 -107 269q0 160 107 272q106 111 258 111t258 -113q107 -108 107 -270z" />
<glyph unicode="&#xf3;" horiz-adv-x="1110" d="M907 1386h-166l-213 -319h66zM1024 459q0 203 -135 342q-131 137 -334 137q-201 0 -336 -137q-133 -139 -133 -342t135 -340q131 -137 334 -137q201 0 336 137q133 139 133 340zM920 459q0 -158 -107 -271q-109 -111 -258 -110q-152 0 -258 112q-106 109 -107 269 q0 160 107 272q106 111 258 111t258 -113q107 -108 107 -270z" />
<glyph unicode="&#xf4;" horiz-adv-x="1110" d="M838 1049l-224 335h-118l-222 -335h78l203 221l205 -221h78zM1024 459q0 203 -135 342q-131 137 -334 137q-201 0 -336 -137q-133 -139 -133 -342t135 -340q131 -137 334 -137q201 0 336 137q133 139 133 340zM920 459q0 -158 -107 -271q-109 -111 -258 -110 q-152 0 -258 112q-106 109 -107 269q0 160 107 272q106 111 258 111t258 -113q107 -108 107 -270z" />
<glyph unicode="&#xf5;" horiz-adv-x="1110" d="M889 1315h-64q-10 -57 -34 -78q-23 -20 -52 -20q-51 0 -168 51q-117 49 -182 49q-84 0 -127 -57q-41 -59 -41 -138h66q6 57 32.5 78t53.5 21q49 0 166 -52q117 -49 182 -49q88 0 127 58q41 59 41 137zM1024 459q0 203 -135 342q-131 137 -334 137q-201 0 -336 -137 q-133 -139 -133 -342t135 -340q131 -137 334 -137q201 0 336 137q133 139 133 340zM920 459q0 -158 -107 -271q-109 -111 -258 -110q-152 0 -258 112q-106 109 -107 269q0 160 107 272q106 111 258 111t258 -113q107 -108 107 -270z" />
<glyph unicode="&#xf6;" horiz-adv-x="1110" d="M768 1143v139h-139v-139h139zM487 1143v139h-139v-139h139zM1024 459q0 203 -135 342q-131 137 -334 137q-201 0 -336 -137q-133 -139 -133 -342t135 -340q131 -137 334 -137q201 0 336 137q133 139 133 340zM920 459q0 -158 -107 -271q-109 -111 -258 -110 q-152 0 -258 112q-106 109 -107 269q0 160 107 272q106 111 258 111t258 -113q107 -108 107 -270z" />
<glyph unicode="&#xf7;" horiz-adv-x="1351" d="M731 967v172h-110v-172h110zM1212 674v90h-1073v-90h1073zM731 299v172h-110v-172h110z" />
<glyph unicode="&#xf8;" horiz-adv-x="1110" d="M1024 459q0 201 -127 334l111 127l-64 51l-106 -123q-115 90 -283 90q-201 0 -336 -137q-133 -139 -133 -342q0 -201 125 -332l-121 -139l64 -49l116 135q113 -92 285 -92q201 0 336 137q133 139 133 340zM920 459q0 -158 -107 -271q-109 -111 -258 -110q-129 0 -217 74 l489 561q93 -104 93 -254zM770 770l-489 -563q-90 106 -91 252q0 160 107 272q106 111 258 111q125 0 215 -72z" />
<glyph unicode="&#xf9;" horiz-adv-x="1003" d="M696 1067l-213 319h-166l314 -319h65zM877 0v920h-99v-644q-35 -68 -114 -133q-78 -66 -185 -65q-121 0 -188 78q-66 78 -66 217v547h-98v-568q0 -180 96 -276q94 -94 269 -94q76 0 151 41q72 39 135 137v-160h99z" />
<glyph unicode="&#xfa;" horiz-adv-x="1003" d="M852 1386h-166l-213 -319h66zM877 0v920h-99v-644q-35 -68 -114 -133q-78 -66 -185 -65q-121 0 -188 78q-66 78 -66 217v547h-98v-568q0 -180 96 -276q94 -94 269 -94q76 0 151 41q72 39 135 137v-160h99z" />
<glyph unicode="&#xfb;" horiz-adv-x="1003" d="M782 1049l-223 335h-119l-221 -335h78l203 221l205 -221h77zM877 0v920h-99v-644q-35 -68 -114 -133q-78 -66 -185 -65q-121 0 -188 78q-66 78 -66 217v547h-98v-568q0 -180 96 -276q94 -94 269 -94q76 0 151 41q72 39 135 137v-160h99z" />
<glyph unicode="&#xfc;" horiz-adv-x="1003" d="M713 1143v139h-140v-139h140zM432 1143v139h-139v-139h139zM877 0v920h-99v-644q-35 -68 -114 -133q-78 -66 -185 -65q-121 0 -188 78q-66 78 -66 217v547h-98v-568q0 -180 96 -276q94 -94 269 -94q76 0 151 41q72 39 135 137v-160h99z" />
<glyph unicode="&#xfd;" horiz-adv-x="854" d="M776 1386h-166l-213 -319h66zM864 920h-100l-315 -644l-332 644h-107l389 -744l-321 -647h100z" />
<glyph unicode="&#xfe;" horiz-adv-x="1044" d="M961 461q0 211 -132 344q-133 133 -335 133q-66 0 -136 -18q-72 -18 -131 -52v529h-98v-1868h98v522q35 -16 69 -29.5t69 -23.5q72 -16 149 -16q184 0 315.5 143t131.5 336zM852 459q0 -166 -102 -275q-100 -106 -269 -106q-88 0 -151 24q-59 20 -103 43v631 q14 8 37 18.5t55 22.5q61 25 150 25q164 0 274 -111q109 -108 109 -272z" />
<glyph unicode="&#xff;" horiz-adv-x="854" d="M637 1143v139h-139v-139h139zM356 1143v139h-139v-139h139zM864 920h-100l-315 -644l-332 644h-107l389 -744l-321 -647h100z" />
<glyph unicode="&#x152;" horiz-adv-x="1835" d="M1759 0v90h-676v567l643 2v89h-643v559h662v90h-930q-311 0 -522 -199q-209 -197 -209 -491q0 -309 209 -508q205 -199 526 -199h940zM975 90h-133q-279 0 -459 172q-182 172 -182 436q0 258 182 435q180 174 453 174h139v-1217z" />
<glyph unicode="&#x153;" horiz-adv-x="1705" d="M1618 494q0 193 -96 319q-94 125 -248 125q-115 0 -197 -45q-82 -43 -155 -150q-72 104 -164 150q-88 45 -228 45q-195 0 -319 -137q-127 -139 -127 -342q0 -201 127 -340q125 -137 313 -137q139 0 241.5 59t164.5 158q51 -127 147 -172q92 -45 211 -45q98 0 185 41 q41 20 72.5 40.5t53.5 40.5v111q-18 -18 -46.5 -39.5l-67.5 -48.5q-78 -49 -172 -49q-139 0 -236 108q-92 106 -92 267v22q0 10 2 19h631zM1497 573h-502q23 100 64 160q72 109 201 109q104 0 163 -72q58 -72 74 -197zM879 459q0 -158 -101 -271q-102 -111 -243 -110 q-145 0 -246 112q-100 109 -101 269q0 160 101 272q100 111 246 111q143 0 243 -113q101 -108 101 -270z" />
<glyph unicode="&#x178;" horiz-adv-x="1193" d="M807 1589v140h-139v-140h139zM526 1589v140h-139v-140h139zM1194 1397h-131l-465 -553l-467 553h-131l543 -647v-750h108v750z" />
<glyph unicode="&#x2c6;" horiz-adv-x="681" d="M623 1049l-224 335h-118l-222 -335h78l203 221l205 -221h78z" />
<glyph unicode="&#x2dc;" horiz-adv-x="681" d="M674 1315h-64q-10 -57 -35 -78q-23 -20 -51 -20q-51 0 -168 51q-117 49 -182 49q-84 0 -127 -57q-41 -59 -41 -138h66q6 57 32.5 78t53.5 21q49 0 166 -52q117 -49 182 -49q88 0 127 58q41 59 41 137z" />
<glyph unicode="&#x2000;" horiz-adv-x="917" />
<glyph unicode="&#x2001;" horiz-adv-x="1835" />
<glyph unicode="&#x2002;" horiz-adv-x="917" />
<glyph unicode="&#x2003;" horiz-adv-x="1835" />
<glyph unicode="&#x2004;" horiz-adv-x="610" />
<glyph unicode="&#x2005;" horiz-adv-x="458" />
<glyph unicode="&#x2006;" horiz-adv-x="305" />
<glyph unicode="&#x2007;" horiz-adv-x="305" />
<glyph unicode="&#x2008;" horiz-adv-x="229" />
<glyph unicode="&#x2009;" horiz-adv-x="366" />
<glyph unicode="&#x200a;" horiz-adv-x="100" />
<glyph unicode="&#x2010;" horiz-adv-x="641" d="M563 463v96h-485v-96h485z" />
<glyph unicode="&#x2011;" horiz-adv-x="641" d="M563 463v96h-485v-96h485z" />
<glyph unicode="&#x2012;" horiz-adv-x="641" d="M563 463v96h-485v-96h485z" />
<glyph unicode="&#x2013;" d="M1036 479v66h-1048v-66h1048z" />
<glyph unicode="&#x2014;" horiz-adv-x="2048" d="M2060 479v66h-2072v-66h2072z" />
<glyph unicode="&#x2018;" horiz-adv-x="362" d="M268 1329v72q-23 -14 -54.5 -40t-53.5 -61q-45 -74 -45 -196v-141h133v198h-43q0 68 12 105q4 16 22.5 32.5t28.5 30.5z" />
<glyph unicode="&#x2019;" horiz-adv-x="362" d="M248 1260v141h-133v-199h43q0 -68 -13 -104q-4 -16 -22.5 -32.5t-28.5 -31.5v-71q23 14 54.5 39.5t54.5 60.5q45 74 45 197z" />
<glyph unicode="&#x201a;" horiz-adv-x="362" d="M248 57v142h-133v-199h43q0 -68 -13 -104q-10 -37 -30 -64v-72q23 14 44 40t44 61q45 73 45 196z" />
<glyph unicode="&#x201c;" horiz-adv-x="811" d="M717 1329v72q-23 -14 -54.5 -40t-54.5 -61q-45 -74 -45 -196v-141h133v198h-43q0 68 13 105q4 16 22.5 32.5t28.5 30.5zM268 1329v72q-23 -14 -54.5 -40t-53.5 -61q-45 -74 -45 -196v-141h133v198h-43q0 68 12 105q4 16 22.5 32.5t28.5 30.5z" />
<glyph unicode="&#x201d;" horiz-adv-x="811" d="M696 1260v141h-133v-199h43q0 -68 -12 -104q-4 -16 -22.5 -32.5t-28.5 -31.5v-71q23 14 54.5 39.5t53.5 60.5q45 74 45 197zM248 1260v141h-133v-199h43q0 -68 -13 -104q-4 -16 -22.5 -32.5t-28.5 -31.5v-71q23 14 54.5 39.5t54.5 60.5q45 74 45 197z" />
<glyph unicode="&#x201e;" horiz-adv-x="811" d="M692 57v142h-133v-199h43q0 -66 -10 -102q-6 -18 -24.5 -35t-28.5 -31v-72q23 14 53.5 39t52.5 60q47 71 47 198zM252 57v142h-133v-199h43q0 -66 -10 -102q-6 -18 -24.5 -35t-29.5 -31v-72q23 14 53.5 39t53.5 60q47 71 47 198z" />
<glyph unicode="&#x2022;" d="M762 698q0 104 -74 179q-72 72 -176 71q-104 0 -178 -74q-72 -72 -72 -176t74 -178q72 -72 176 -71q104 0 178 73q72 72 72 176z" />
<glyph unicode="&#x2026;" horiz-adv-x="2048" d="M1769 0v201h-131v-201h131zM1087 0v201h-131v-201h131zM406 0v201h-132v-201h132z" />
<glyph unicode="&#x202f;" horiz-adv-x="366" />
<glyph unicode="&#x2039;" horiz-adv-x="575" d="M545 12l-387 461l383 461h-125l-383 -461l387 -461h125z" />
<glyph unicode="&#x203a;" horiz-adv-x="575" d="M541 473l-383 461h-125l383 -461l-387 -461h125z" />
<glyph unicode="&#x205f;" horiz-adv-x="458" />
<glyph unicode="&#x2122;" horiz-adv-x="1925" d="M1667 649v748h-188l-183 -584l-184 584h-176v-748h96v672l228 -672h65l236 672v-672h106zM840 1315v82h-633v-82h264v-666h107v666h262z" />
<glyph unicode="&#xe000;" horiz-adv-x="920" d="M0 920h920v-920h-920v920z" />
<glyph unicode="&#xfb01;" horiz-adv-x="876" d="M734 1229v168h-99v-168h99zM734 0v920h-99v-920h99zM680 1284v92q-10 8 -59 23q-53 16 -107 16q-141 0 -231 -96t-90 -248v-151h-170v-80h170v-840h98v840h178v80h-178v120q0 143 55 211t162 68q57 0 113 -16l40 -12.5t19 -6.5z" />
<glyph unicode="&#xfb02;" horiz-adv-x="876" d="M734 0v1397h-99v-1397h99zM680 1284v92q-10 8 -59 23q-53 16 -107 16q-141 0 -231 -96t-90 -248v-151h-170v-80h170v-840h98v840h178v80h-178v120q0 143 55 211t162 68q57 0 113 -16l40 -12.5t19 -6.5z" />
<glyph unicode="&#xfb03;" horiz-adv-x="1368" d="M1225 1229v168h-99v-168h99zM1225 0v920h-99v-920h99zM1172 1284v92q-10 8 -59 23q-53 16 -107 16q-141 0 -231 -96t-90 -248v-151h-170v-80h170v-840h98v840h178v80h-178v120q0 143 55 211t162 68q57 0 113 -16l40 -12.5t19 -6.5zM680 1284v92q-10 8 -59 23 q-53 16 -107 16q-141 0 -231 -96t-90 -248v-151h-170v-80h170v-840h98v840h178v80h-178v120q0 143 55 211t162 68q57 0 113 -16l40 -12.5t19 -6.5z" />
<glyph unicode="&#xfb04;" horiz-adv-x="1368" d="M1225 0v1397h-99v-1397h99zM1172 1284v92q-10 8 -59 23q-53 16 -107 16q-141 0 -231 -96t-90 -248v-151h-170v-80h170v-840h98v840h178v80h-178v120q0 143 55 211t162 68q57 0 113 -16l40 -12.5t19 -6.5zM680 1284v92q-10 8 -59 23q-53 16 -107 16q-141 0 -231 -96 t-90 -248v-151h-170v-80h170v-840h98v840h178v80h-178v120q0 143 55 211t162 68q57 0 113 -16l40 -12.5t19 -6.5z" />
</font>
</defs>
</svg>
