<?xml version="1.0" standalone="no"?>
<!DOCTYPE svg PUBLIC "-//W3C//DTD SVG 1.1//EN" "http://www.w3.org/Graphics/SVG/1.1/DTD/svg11.dtd" >
<svg xmlns="http://www.w3.org/2000/svg">
<metadata>
This is a custom SVG webfont generated by Font Squirrel.
Copyright   : Copyright c 5305M Klein Blended between Light and Bold
</metadata>
<defs>
<font id="webfontT3WXDf5I" horiz-adv-x="1075" >
<font-face units-per-em="2048" ascent="1638" descent="-410" />
<missing-glyph horiz-adv-x="598" />
<glyph unicode=" "  horiz-adv-x="598" />
<glyph unicode="&#x09;" horiz-adv-x="598" />
<glyph unicode="&#xa0;" horiz-adv-x="598" />
<glyph unicode="!" horiz-adv-x="380" d="M283 1423h-187l37 -1056h113zM283 -27v252h-185v-252h185z" />
<glyph unicode="&#x22;" horiz-adv-x="598" d="M532 1311l-75 116h-111v-260l27 -272h133l20 211zM252 1311l-76 116h-110v-260l26 -272h133l21 211z" />
<glyph unicode="#" horiz-adv-x="1419" d="M1253 406v145h-262l70 340h192v145h-161l86 420h-150l-86 -422h-332l86 422h-149l-86 -422h-295v-145h264l-70 -340h-194v-146h164l-88 -430h149l88 433h332l-88 -433h149l89 433h292zM911 891l-69 -342h-332l70 342h331z" />
<glyph unicode="$" horiz-adv-x="1120" d="M1030 338q0 170 -106 258q-102 90 -346 164q-88 29 -150.5 56.5t-103.5 53.5q-70 49 -70 142q0 92 84 155q90 68 213 68q66 0 119 -11.5t100 -34t92 -50t107 -76.5v178q-39 31 -80 53.5t-92 44.5q-72 29 -162 37l2 168h-150l-2 -168q-145 -18 -254 -106 q-135 -115 -135 -271q0 -162 103 -245q98 -78 305 -138q195 -59 284 -118q86 -59 86 -162q0 -96 -88 -166q-88 -72 -219 -72q-88 0 -207 47q-59 23 -121.5 60t-152.5 104v-174q41 -41 92 -71.5t111 -57.5q92 -41 198 -49v-223h150v223q143 18 254 106q139 115 139 275z" />
<glyph unicode="%" horiz-adv-x="1501" d="M760 1087q0 145 -104.5 250t-252.5 105q-141 0 -249 -105q-104 -102 -105 -250q0 -145 103 -251q109 -104 251 -105q145 0 252 107q105 104 105 249zM1411 1434h-170l-1165 -1483h168zM1454 301q0 143 -106 250q-104 104 -252 104q-141 0 -250 -104q-104 -102 -105 -250 q0 -141 107 -248q104 -104 248 -104q145 0 254 104q53 51 78.5 113.5t25.5 134.5zM621 1083q0 -84 -66 -149q-61 -63 -149 -64q-88 0 -154 66q-63 63 -64 154q0 86 63.5 149.5t156.5 63.5q88 0 149 -66q64 -62 64 -154zM1315 297q0 -86 -64 -147q-66 -61 -153 -62 q-88 0 -154 66q-63 63 -63 149t65 150q68 63 154 63q90 0 151 -65q64 -64 64 -154z" />
<glyph unicode="&#x26;" horiz-adv-x="1323" d="M1311 -27l-316 332l45 69q23 36 43 77q29 59 55.5 121.5t55.5 150.5h-168q-25 -72 -47.5 -125t-44.5 -94q-10 -20 -23 -41l-26 -43l-271 285q100 53 177 129q102 106 102 249q0 145 -105 232q-51 41 -108 61.5t-125 20.5q-137 0 -244 -97q-106 -94 -106 -229 q0 -94 47 -178q20 -35 41.5 -65.5t50.5 -61.5l18 -18q-131 -57 -221 -158q-109 -121 -108 -275q0 -143 98 -249q98 -111 291 -111q166 0 299 76q96 57 180 153l203 -211h207zM741 1073q0 -82 -69 -151q-51 -55 -164 -105q-2 2 -9 8t-10 11q-27 27 -49 54.5t-41 57.5 q-39 66 -39 125q0 80 58 123q68 49 139 49q74 0 131 -51q53 -43 53 -121zM795 295q-39 -45 -77 -79t-77 -56q-90 -53 -201 -54q-109 0 -176 58q-63 57 -63 170q0 106 77.5 178t192.5 123z" />
<glyph unicode="'" horiz-adv-x="477" d="M332 1311l-76 116h-111v-260l27 -272h133l21 211z" />
<glyph unicode="(" horiz-adv-x="716" d="M692 -477q-117 100 -190.5 198.5t-132.5 219.5q-117 236 -117 532q0 291 119 533q59 121 133 219t188 198h-182q-154 -141 -283 -381q-131 -242 -131 -569q0 -328 133 -571q66 -121 134.5 -214.5t146.5 -164.5h182z" />
<glyph unicode=")" horiz-adv-x="716" d="M621 473q0 330 -132 571q-66 121 -136 214.5t-150 164.5h-183q117 -100 192 -199.5t134 -217.5q119 -236 119 -533t-119 -532q-29 -59 -61.5 -113.5t-71.5 -106t-87 -100.5t-106 -98h183q80 72 150.5 166t135.5 215q132 241 132 569z" />
<glyph unicode="*" horiz-adv-x="1007" d="M926 850q-51 20 -86 35.5t-68 32.5l-70 34l-90 47l90 47l70 35l67.5 31.5t86.5 36.5l-80 143l-56 -45l-46 -33l-41 -27q-19 -13 -44 -28l-102 -63q2 59 4 100t5 78t7 75l11 93h-160l10 -91q4 -38 6 -75t4 -79t7 -101q-63 41 -103 63q-25 14 -44 28l-41 27q-22 14 -45 33 l-56 45l-80 -143l84 -36q35 -15 67 -32l71 -35l91 -47l-90 -47l-69 -34l-68 -32t-86 -36l80 -143l56 45q24 18 45 32l41 27l44 29l103 63q-4 -59 -5.5 -100t-4.5 -78t-7 -75l-10 -93h160l-11 91q-4 38 -6 75t-5 79t-5 101q63 -41 102 -63l44 -29l41 -27q22 -14 46 -32 l56 -45z" />
<glyph unicode="+" horiz-adv-x="1419" d="M1272 653v142h-492v485h-141v-487h-492v-142h492v-491h141v493h492z" />
<glyph unicode="," horiz-adv-x="380" d="M287 35v190h-185v-252h43q-4 -47 -12 -73q-2 -6 -10 -15.5t-14 -13.5q-4 -6 -11.5 -13.5t-15.5 -17.5v-131l60 44q17 13 30 24q23 20 43.5 41.5t32.5 50.5q39 78 39 166z" />
<glyph unicode="-" horiz-adv-x="673" d="M604 492v126h-536v-126h536z" />
<glyph unicode="." horiz-adv-x="380" d="M281 -27v254h-183v-254h183z" />
<glyph unicode="/" horiz-adv-x="604" d="M606 1442h-149l-467 -1487h149z" />
<glyph unicode="0" d="M1012 692v13q0 315 -125 524q-127 213 -348 213t-349 -213q-125 -205 -124 -524v-13q0 -319 124 -524q123 -213 347 -213q221 0 350 213q125 205 125 524zM854 690q0 -252 -94 -424q-45 -86 -100.5 -124t-120.5 -38q-135 0 -226 162q-90 170 -90 424v17q0 254 92 423 q47 86 101.5 124t120.5 38t123 -39t102 -122.5t68.5 -189t23.5 -234.5v-17z" />
<glyph unicode="1" horiz-adv-x="720" d="M604 -27v1450h-158v-123l-391 -389l109 -110l282 284v-1112h158z" />
<glyph unicode="2" d="M1006 -27v150h-619l135 160l76 104l76 107q29 41 62.5 98t68.5 131q68 147 67 287q0 182 -124 307q-129 125 -312 125q-123 0 -211 -49q-41 -23 -75.5 -44.5t-65.5 -50.5v-194q66 63 105.5 94t76.5 53q72 41 162 41q125 0 205 -82q82 -80 82 -202q0 -57 -11.5 -112.5 t-37.5 -113.5q-25 -57 -55.5 -115.5t-71.5 -115.5q-51 -76 -102.5 -141.5t-102.5 -120.5l-106 -116q-56 -62 -128 -134v-66h906z" />
<glyph unicode="3" d="M932 393q0 131 -78 232q-59 74 -160 116q104 43 158 119q63 94 63 199q0 170 -124 276q-119 106 -308 107q-123 0 -211 -39q-39 -16 -67.5 -31.5t-50.5 -34.5v-159q41 29 70.5 45t68.5 34q74 35 176 35q127 0 211 -71q80 -72 80 -168q0 -102 -88 -172q-94 -72 -219 -72 h-37v-150h45q78 0 136 -21.5t99 -57.5q80 -74 80 -203q0 -119 -84 -197q-86 -76 -219 -76q-98 0 -176 23q-39 10 -73 25l-83 36v-151q33 -18 68 -30.5t80 -24.5q47 -12 95 -19.5t99 -7.5q197 0 324 121q125 118 125 317z" />
<glyph unicode="4" d="M1024 514v135h-193v793h-79l-715 -858v-72h639v-539h155v541h193zM676 649h-414l414 498v-498z" />
<glyph unicode="5" d="M940 434q0 209 -133 334q-68 63 -154 96t-196 27l-92 -4v389h495v147h-645v-712q45 14 69.5 20t47 10t45 5.5t47.5 1.5q170 0 266 -84q96 -86 96 -234q0 -141 -92 -233.5t-229 -92.5q-96 0 -191 41q-47 23 -84.5 43.5t-89.5 55.5v-185q33 -18 70 -35.5t84 -33.5 q98 -35 217 -35q205 0 338 135q131 133 131 344z" />
<glyph unicode="6" d="M985 360q0 188 -117 306q-121 117 -305 116q-78 0 -145 -26q-66 -23 -117 -56q33 129 109 238q74 109 173 206t236 193l-94 113q-129 -92 -233.5 -194.5t-194.5 -225.5q-184 -250 -184 -553q0 -250 131 -387q129 -135 319 -135q176 0 299 117q123 112 123 288zM829 356 q0 -111 -77 -180q-78 -72 -195 -72q-119 0 -207 95q-86 92 -86 264v26q0 12 2 23q33 33 99 72q80 49 190 49q119 0 199 -80q75 -76 75 -197z" />
<glyph unicode="7" d="M1028 1423h-977v-149h748l-572 -1266l135 -59z" />
<glyph unicode="8" d="M963 383q0 123 -64 221q-53 78 -125 123q41 35 70.5 71t50.5 74q39 78 39 172q0 158 -115 279q-115 119 -272 119q-168 0 -289 -117q-115 -119 -115 -287q0 -90 43 -176q37 -70 121 -135q-82 -51 -131 -127q-33 -47 -47 -102.5t-14 -118.5q0 -176 123 -301 q127 -123 299 -123q180 0 303 123t123 305zM778 1038q0 -102 -71 -170q-68 -72 -168 -71q-98 0 -170 71q-70 68 -70 164q0 117 66 187q68 72 174 71q104 0 172 -71q67 -68 67 -181zM807 379q0 -117 -78 -195q-74 -80 -188 -80q-115 0 -195 80q-76 76 -76 193q0 119 76 194 q78 78 195 78q111 0 188 -80q78 -77 78 -190z" />
<glyph unicode="9" d="M958 909q0 260 -129 398q-131 135 -329 135q-180 0 -299 -119q-119 -117 -119 -299q0 -174 121 -289q119 -117 297 -117q53 0 103 9.5t97 36.5q18 4 37 15t31 21q-37 -145 -119 -256q-78 -104 -175 -196t-230 -185l88 -116q180 129 299 248.5t190 240.5q137 231 137 473z M799 922v-33q-35 -35 -105 -74q-84 -47 -190 -47q-111 0 -189 78q-78 74 -77 178q0 117 77 190q74 78 189 78q137 0 215 -88q39 -43 59.5 -112.5t20.5 -169.5z" />
<glyph unicode=":" horiz-adv-x="380" d="M281 696v252h-183v-254zM281 -27v254h-183v-254h183z" />
<glyph unicode=";" horiz-adv-x="380" d="M285 696v252h-183v-254zM287 35v190h-185v-252h43q-4 -47 -12 -73q-2 -6 -10 -15.5t-14 -13.5q-4 -6 -11.5 -13.5t-15.5 -17.5v-131l60 44q17 13 30 24q23 20 43.5 41.5t32.5 50.5q39 78 39 166z" />
<glyph unicode="&#x3c;" horiz-adv-x="1419" d="M1272 186v156l-910 377l910 377v155l-1125 -473v-119z" />
<glyph unicode="=" horiz-adv-x="1419" d="M1272 897v141h-1125v-143zM1272 399v144h-1125v-144h1125z" />
<glyph unicode="&#x3e;" horiz-adv-x="1419" d="M1272 659v119l-1125 473v-155l908 -377l-908 -377v-156z" />
<glyph unicode="?" horiz-adv-x="604" d="M543 1126q0 61 -16.5 116.5t-51.5 103.5q-72 98 -215 98q-49 0 -94 -17q-10 -4 -41 -19l-52 -26l-26 -12l55 -137l32 18q22 12 45.5 23.5t45 21t33.5 9.5q55 0 92 -50q37 -47 37 -118q0 -86 -37 -166q-20 -41 -48 -89l-62 -104q-27 -43 -44.5 -77.5t-27.5 -63.5 q-18 -55 -18 -121q0 -53 30 -110q12 -25 28.5 -48.5t45.5 -56.5l70 61q-20 37 -29 58l-12 31q-2 10 -3 20t-1 21q0 41 14 81q12 41 57 107q51 72 88 131t60 102q45 90 45 213zM356 -27v252h-184v-252h184z" />
<glyph unicode="@" horiz-adv-x="1720" d="M1516 199h-119q-35 -51 -85 -92t-122 -78q-143 -72 -322 -72q-215 0 -393 166q-174 162 -174 420q0 250 168 420q168 172 401 172q227 0 381 -164q59 -66 92 -141.5t33 -165.5q0 -180 -100 -308q-47 -59 -90 -91t-90 -36l-4 19.5t-2 21.5q-2 4 -1 15.5t1 17.5q0 4 3 21.5 t5 25.5l123 580h-136l-18 -92q-37 53 -82 80q-74 43 -137 43q-193 0 -307 -158q-113 -160 -113 -330q0 -166 88 -260q88 -92 203 -92q74 0 143 41q29 16 52.5 36.5t46.5 43.5q14 -66 32 -86q16 -16 32.5 -27.5t37.5 -11.5q78 0 147.5 43t135.5 121q131 158 131 378 q0 233 -172 405.5t-439 172.5q-281 0 -475 -207t-194 -479q0 -281 190 -485q190 -211 494 -211q211 0 387 104q86 47 145.5 103.5t102.5 136.5zM1020 639q0 -98 -84 -256q-78 -150 -199 -150q-59 0 -116 60q-55 55 -56 174q0 70 19.5 136.5t60.5 127.5q80 123 195 123 q80 0 129 -61q51 -64 51 -154z" />
<glyph unicode="A" horiz-adv-x="1433" d="M1430 -27l-666 1461h-92l-670 -1461h170l221 486h649l222 -486h166zM977 600h-520l260 569z" />
<glyph unicode="B" horiz-adv-x="1142" d="M1065 379q0 156 -100 254q-74 70 -189 102q86 55 127 133q41 76 41 164q0 184 -131 291q-127 100 -348 100h-328v-1450h432q227 0 361 107q135 106 135 299zM776 1022q0 -121 -86 -184q-88 -63 -256 -64h-137v508h131q176 0 264 -65q84 -62 84 -195zM899 369 q0 -121 -90 -187q-96 -68 -260 -67h-252v520h217q98 0 170 -17.5t121 -50.5q94 -63 94 -198z" />
<glyph unicode="C" horiz-adv-x="1456" d="M1389 100v170q-74 -41 -133.5 -68.5t-122.5 -49.5q-121 -45 -269 -46q-264 0 -434 166q-166 162 -166 426q0 252 170 422q86 84 190.5 127t233.5 43q133 0 250 -39q63 -20 124.5 -45.5t139.5 -72.5v182q-63 33 -123.5 55.5t-128.5 38.5q-129 33 -243 33q-336 0 -558 -213 q-223 -211 -223 -531q0 -326 223 -534q221 -209 564 -209q119 0 258 41q66 20 127.5 44.5t120.5 59.5z" />
<glyph unicode="D" horiz-adv-x="1591" d="M1460 696q0 336 -211 533q-211 195 -567 194h-522v-1450h538q356 0 559 203t203 520zM1292 696q0 -264 -170 -422q-172 -160 -454 -159h-349v1167h355q283 0 450.5 -162t167.5 -424z" />
<glyph unicode="E" horiz-adv-x="1054" d="M967 -27v144h-670v516h637v141h-637v508h655v141h-815v-1450h830z" />
<glyph unicode="F" horiz-adv-x="942" d="M895 1282v141h-774v-1450h160v689h550v141h-550v479h614z" />
<glyph unicode="G" horiz-adv-x="1546" d="M1421 84v578h-452v-144h295v-334q-23 -14 -58 -26.5t-80 -24.5q-92 -27 -208 -27q-145 0 -259 42t-202 122q-172 160 -172 430q0 256 170 422q174 168 428 168q61 0 122.5 -10t123 -28.5t123 -46t145.5 -77.5v183q-41 25 -92.5 44t-121 41.5t-144 34t-156.5 11.5 q-324 0 -547 -213q-219 -213 -219 -527q0 -319 225 -534q225 -213 561 -213q72 0 141.5 10t135 26.5t124 39t117.5 53.5z" />
<glyph unicode="H" horiz-adv-x="1546" d="M1372 -27v1450h-160v-647h-878v647h-160v-1450h160v664h878v-664h160z" />
<glyph unicode="I" horiz-adv-x="446" d="M303 -27v1450h-158v-1450h158z" />
<glyph unicode="J" horiz-adv-x="446" d="M305 -14v1437h-160v-1415q0 -74 -12 -129t-35 -94q-41 -68 -123 -68l-96 11l17 -156l90 -4q9 -1 17 -1q61 0 112 25q57 29 102 80q47 53 67.5 132.5t20.5 181.5z" />
<glyph unicode="K" horiz-adv-x="1159" d="M1186 -27l-758 727l690 723h-207l-632 -659v659h-160v-1450h160v668l694 -668h213z" />
<glyph unicode="L" horiz-adv-x="1007" d="M969 -27v144h-690v1306h-160v-1450h850z" />
<glyph unicode="M" horiz-adv-x="1679" d="M1505 -27v1450h-147l-518 -635l-521 635h-145v-1450h160v1198l506 -626l506 626v-1198h159z" />
<glyph unicode="N" horiz-adv-x="1658" d="M1487 -27v1450h-160v-1181l-244 284l-243 275l-267 303l-270 319h-129v-1450h160v1180l1022 -1180h131z" />
<glyph unicode="O" horiz-adv-x="1769" d="M1651 698q0 317 -221 531q-219 213 -545 213q-324 0 -545 -215q-219 -211 -219 -529q0 -158 55 -291t166 -239q219 -213 543 -213t545 215q221 211 221 528zM1483 698q0 -242 -176 -417q-172 -174 -422 -175q-250 0 -424 175q-172 172 -172 417q0 244 174 418t422 174 q250 0 422 -174q176 -176 176 -418z" />
<glyph unicode="P" horiz-adv-x="1097" d="M1022 1024q0 195 -125 299q-125 100 -344 100h-422v-1450h160v656h252q223 0 350 100q129 105 129 295zM856 1026q0 -127 -82 -190q-84 -68 -239 -68h-244v514h256q145 0 229 -72q80 -65 80 -184z" />
<glyph unicode="Q" horiz-adv-x="1769" d="M1651 698q0 315 -221 531q-219 213 -545 213q-324 0 -545 -215q-219 -211 -219 -529q0 -317 219 -530q178 -176 457 -207q164 -145 356 -211q100 -35 176 -52t141 -17l-12 159q-8 2 -41 5t-76 10.5t-87 16.5t-76 24q-41 16 -77 34.5t-71 40.5q233 37 400 197 q111 106 166 239t55 291zM1483 698q0 -242 -176 -417q-172 -174 -422 -175q-250 0 -424 175q-172 172 -172 417q0 244 174 418t422 174q250 0 422 -174q176 -176 176 -418z" />
<glyph unicode="R" horiz-adv-x="1232" d="M1266 -27l-289 443l-57 86l-62 88q-25 35 -47.5 59.5t-44.5 40.5q84 33 156 107q86 92 86 235q0 190 -134 293q-66 51 -155.5 74.5t-204.5 23.5h-379v-1450h160v672h188q68 0 116 -20.5t81 -55.5q37 -41 71.5 -91l71.5 -109l254 -396h189zM840 1034q0 -123 -86 -184 q-88 -66 -252 -66h-207v498h217q154 0 244 -68q84 -59 84 -180z" />
<glyph unicode="S" horiz-adv-x="1007" d="M922 354q0 172 -84 264q-41 47 -117 89.5t-182 80.5q-156 57 -222 113q-59 53 -59 154q0 94 78 166q39 35 85 52t105 17q94 0 172 -37l79 -40q38 -19 91 -50l-4 178q-41 29 -131 64q-96 37 -219 37q-174 0 -299 -117q-125 -115 -125 -274q0 -162 88 -250 q41 -41 106.5 -79t153.5 -67q164 -57 246 -123q72 -59 72 -172q0 -109 -78 -180q-80 -74 -195 -74q-72 0 -151 35q-41 18 -91.5 49t-131.5 93v-191q31 -25 70.5 -45t90.5 -43q104 -49 232 -49q170 0 295 119q125 116 125 280z" />
<glyph unicode="T" horiz-adv-x="1232" d="M1221 1282v141h-1209v-143h525v-1307h159v1309h525z" />
<glyph unicode="U" horiz-adv-x="1501" d="M1362 606v817h-160v-809q0 -119 -31.5 -210t-91.5 -160q-121 -137 -325 -138q-209 0 -332 134q-121 133 -121 364v819h-160v-827q0 -285 170 -463q172 -178 441 -178q272 0 440 186q170 182 170 465z" />
<glyph unicode="V" horiz-adv-x="1277" d="M1282 1423h-168l-475 -1142l-477 1142h-164l608 -1464h66z" />
<glyph unicode="W" horiz-adv-x="2217" d="M2202 1423h-162l-447 -1116l-450 1116h-66l-452 -1116l-445 1116h-166l582 -1464h63l451 1137l453 -1137h61z" />
<glyph unicode="X" horiz-adv-x="1519" d="M1524 -27l-660 742l623 708h-209l-518 -589l-520 589h-209l622 -708l-655 -742h209l553 627l553 -627h211z" />
<glyph unicode="Y" horiz-adv-x="1308" d="M1309 1423h-197l-453 -540l-456 540h-197l572 -684v-766h159v766z" />
<glyph unicode="Z" horiz-adv-x="1366" d="M1319 -27v144h-1026l1022 1235l-19 71h-1214v-143h971l-1022 -1243l20 -64h1268z" />
<glyph unicode="[" horiz-adv-x="649" d="M614 -477v149h-364v1604h364v147h-514v-1900h514z" />
<glyph unicode="\" horiz-adv-x="604" d="M614 -45l-464 1487h-148l463 -1487h149z" />
<glyph unicode="]" horiz-adv-x="649" d="M551 -477v1900h-514v-149h364v-1604h-364v-147h514z" />
<glyph unicode="^" horiz-adv-x="1419" d="M1196 879l-469 557h-37l-465 -557l103 -93l381 459l385 -459z" />
<glyph unicode="_" d="M1090 -571v153h-1102v-153h1102z" />
<glyph unicode="`" horiz-adv-x="716" d="M604 1042l-246 371h-241l364 -373z" />
<glyph unicode="a" horiz-adv-x="1097" d="M979 -31v977h-148v-59q-59 33 -126 55q-63 23 -125 23q-213 0 -355 -152q-135 -147 -135 -379q0 -209 133 -344q131 -135 338 -135q84 0 164 22q27 8 53.5 21.5t50.5 24.5v-54h150zM831 178q-23 -12 -47 -29.5t-53 -27.5q-61 -25 -153 -25q-78 0 -136.5 23.5t-105.5 70.5 q-90 90 -90 246q0 166 102 273q98 109 254 108q78 0 146 -29q29 -12 49 -27l34 -26v-557z" />
<glyph unicode="b" horiz-adv-x="1097" d="M1006 483q0 106 -30 194.5t-91 153.5q-119 133 -320 134q-47 0 -91 -10.5t-89 -28.5q-31 -14 -60.5 -35t-58.5 -49v581h-151l4 -1388q45 -23 85 -36t83 -24q80 -20 170 -20q254 0 401 147q148 152 148 381zM852 479q0 -162 -111 -268q-109 -109 -270 -109q-80 0 -141 17 q-49 12 -64 20v533q41 47 115 102q80 57 182 57q125 0 205 -98q84 -100 84 -254z" />
<glyph unicode="c" horiz-adv-x="897" d="M834 10v160q-43 -18 -73 -29l-61 -20q-61 -18 -135 -19q-80 0 -140 25t-103 72q-90 96 -91 260q0 158 91 260q86 98 231 98q72 0 129 -20l58 -21q30 -10 77 -33v168q-41 14 -71.5 23.5t-61.5 15.5q-57 14 -133 15q-215 0 -348 -152q-127 -145 -127 -354q0 -229 129 -367 q131 -137 356 -137q41 0 80 5t78 15l60 18q26 7 55 17z" />
<glyph unicode="d" horiz-adv-x="1097" d="M983 -27v1450h-149v-518q-23 12 -50 22l-57 19q-61 18 -127 19q-111 0 -203 -35t-161 -107q-141 -141 -142 -364q0 -213 144 -359q141 -145 350 -145q39 0 76.5 5t72.5 17q23 8 46.5 25.5t50.5 34.5v-64h149zM831 186q-10 -8 -27.5 -23.5t-41.5 -29.5q-29 -14 -67 -22.5 t-87 -8.5q-154 0 -258 105q-100 100 -100 252q0 160 98 258q94 100 248 100q82 0 145 -29l52 -25q23 -11 38 -24v-553z" />
<glyph unicode="e" horiz-adv-x="1030" d="M961 469q0 121 -31 208t-90 152q-123 135 -314 136q-197 0 -323 -146q-125 -139 -125 -346q0 -223 139 -373q141 -145 358 -145q117 0 218 47q43 18 78.5 41t70.5 49v182q-51 -47 -88 -73.5t-82 -50.5q-84 -47 -188 -48q-78 0 -139.5 27t-112.5 76q-94 94 -101 227v37 h730zM780 590h-526q10 35 25.5 69.5t33.5 57.5q80 100 215 100q59 0 102.5 -17.5t74.5 -47.5q29 -29 47 -72t28 -92v2z" />
<glyph unicode="f" horiz-adv-x="516" d="M666 1249v142q-14 10 -32 16l-46 16q-27 8 -54.5 13.5t-60.5 5.5q-150 0 -250 -105q-96 -106 -96 -266v-127h-170v-131h170v-840h149v842h179v131h-179v94q0 72 13.5 119t36.5 76q47 59 141 59q53 0 106 -16q23 -8 42.5 -13.5t50.5 -15.5z" />
<glyph unicode="g" horiz-adv-x="1097" d="M981 -188l-2 2v1132h-148v-59q-59 33 -126 55q-63 23 -125 23q-215 0 -355 -152q-135 -143 -135 -379q0 -207 131 -344q135 -135 338 -135q82 0 166 22l53 17q27 8 51 18v-221q0 -47 -64.5 -84t-176.5 -37q-88 0 -143.5 46t-92.5 124l-153 -4q31 -92 67.5 -150.5 t85.5 -99.5t112.5 -51t123.5 -10q111 0 184.5 29.5t115.5 70.5t62.5 85t25.5 72t5 30zM831 168l-47 -25q-25 -12 -53 -22q-61 -25 -153 -25q-78 0 -136.5 23.5t-105.5 70.5q-90 90 -90 246q0 166 100 273q102 109 254 108q43 0 79 -7t69 -22q29 -12 49 -27l34 -26v-567z" />
<glyph unicode="h" horiz-adv-x="1054" d="M928 -27v582q0 92 -24.5 168t-78.5 131q-104 111 -274 111q-94 0 -174 -45q-53 -31 -101 -97v600h-149v-1450h149v668q23 35 49.5 65.5t59.5 57.5q63 53 166 53q111 0 168 -76q29 -35 44 -90t15 -127v-551h150z" />
<glyph unicode="i" horiz-adv-x="403" d="M276 1204v219h-149v-221zM276 -27v973h-149v-973h149z" />
<glyph unicode="j" horiz-adv-x="403" d="M279 1204v219h-150v-221zM279 -66v1012h-150v-1042q0 -160 -43 -211q-43 -55 -119 -55h-43l43 -136q68 0 120 24.5t99 70.5q47 47 70 131.5t23 205.5z" />
<glyph unicode="k" horiz-adv-x="995" d="M1063 -27l-612 510l532 463h-207l-536 -463l610 -510h213zM289 -27v510v940h-150v-1450h150z" />
<glyph unicode="l" horiz-adv-x="403" d="M276 -27v1450h-149v-1450h149z" />
<glyph unicode="m" horiz-adv-x="1658" d="M1518 -27v582q0 176 -86 293q-92 117 -236 117h-25q-129 0 -215 -80q-29 -29 -54 -57.5t-44 -57.5q-51 100 -117 145q-39 23 -79.5 36.5t-81.5 13.5h-25q-94 0 -172 -45q-47 -27 -98 -95v121h-148v-973h150v666q47 76 104.5 127t151.5 51q102 0 157 -74q53 -76 54 -219 v-551h149v645q45 74 107 136q61 63 139 63q102 0 162 -76q57 -72 57 -217v-551h150z" />
<glyph unicode="n" horiz-adv-x="1054" d="M928 -27v582q0 92 -24.5 168t-78.5 131q-104 111 -274 111q-96 0 -176 -45q-53 -31 -101 -97v123h-147v-973h149v668q23 35 49.5 65.5t59.5 57.5q63 53 166 53q111 0 168 -76q29 -35 44 -90t15 -127v-551h150z" />
<glyph unicode="o" horiz-adv-x="1165" d="M1077 459q0 213 -141 360q-141 145 -352 146q-215 0 -355 -146q-141 -147 -141 -360q0 -209 143 -359q139 -145 353 -145q211 0 354 145q139 150 139 359zM922 459q0 -147 -99 -252q-102 -104 -239 -105q-139 0 -240 107q-100 100 -100 250q0 152 100 254q98 104 240 104 q139 0 239 -106q99 -102 99 -252z" />
<glyph unicode="p" horiz-adv-x="1097" d="M1042 461q0 221 -139 362.5t-354 141.5q-29 0 -59.5 -5.5t-61.5 -15.5q-35 -10 -64.5 -22.5l-52.5 -22.5v47h-151v-1444h149v510q27 -12 52.5 -22t52.5 -17q70 -18 155 -18q195 0 334 154q139 149 139 352zM883 459q0 -156 -97 -256q-92 -100 -249 -101q-41 0 -77 7.5 t-67 17.5q-25 10 -46 17.5t-38 17.5v588q12 8 31.5 15t44.5 17l62 23q34 12 77 12q154 0 256 -104q103 -98 103 -254z" />
<glyph unicode="q" horiz-adv-x="1097" d="M979 -498v1444h-148v-59q-59 33 -126 55q-63 23 -125 23q-213 0 -355 -152q-135 -147 -135 -379q0 -209 133 -344q131 -135 338 -135q84 0 164 22l53 17q27 8 51 18v-510h150zM831 168l-47 -25q-25 -12 -53 -22q-61 -25 -153 -25q-78 0 -136.5 23.5t-105.5 70.5 q-90 90 -90 246q0 166 102 273q98 109 254 108q78 0 146 -29q29 -12 49 -27l34 -26v-567z" />
<glyph unicode="r" horiz-adv-x="759" d="M805 829q-31 37 -94 82q-35 25 -71 39.5t-77 14.5q-43 0 -90 -8.5t-94 -49.5q-31 -27 -64.5 -68.5t-52.5 -72.5v180h-149v-973h149v600q41 66 119 156q82 88 154 88q33 0 71 -26q23 -12 48.5 -33t66.5 -60z" />
<glyph unicode="s" horiz-adv-x="761" d="M700 238q0 125 -86 192q-78 63 -202 107q-47 16 -82 33.5t-62 35.5q-45 33 -45 86q0 49 45 92q23 18 54.5 28.5t76.5 10.5q59 0 123 -26q31 -14 63.5 -34t86.5 -61v168q-45 39 -115 66q-76 29 -166 29q-61 0 -114.5 -20.5t-100.5 -57.5q-98 -78 -98 -197q0 -106 69 -174 q33 -33 79 -58.5t106 -47.5q147 -53 188 -93q35 -35 35 -77q0 -63 -47 -99q-51 -39 -131 -39q-68 0 -141 27q-37 12 -74 29.5t-90 52.5v-160l54.5 -31.5t66.5 -31.5q76 -35 184 -35q137 0 229 84q94 84 94 201z" />
<glyph unicode="t" horiz-adv-x="649" d="M659 10v154l-74 -33q-24 -10 -44 -16q-37 -12 -70 -13q-43 0 -65.5 8.5t-30.5 18.5q-10 10 -15.5 40t-5.5 85v561h258v131h-258v305h-65l-84 -57v-250h-248v-131h248v-627q0 -51 15.5 -94t49.5 -76q63 -61 174 -61q29 0 54.5 4t48 10t48 15.5t64.5 25.5z" />
<glyph unicode="u" horiz-adv-x="1054" d="M928 -27v973h-150v-663q-31 -59 -106 -119q-74 -61 -168 -62q-109 0 -168.5 70t-59.5 201v573h-149v-594q0 -193 102.5 -295t286.5 -102q84 0 164 45q51 27 98 90v-117h150z" />
<glyph unicode="v" horiz-adv-x="917" d="M936 946h-152l-315 -737l-330 737h-155l440 -991h94z" />
<glyph unicode="w" horiz-adv-x="1521" d="M1524 946h-152l-301 -708l-272 708h-82l-273 -706l-294 706h-152l416 -991h80l266 702l264 -702h82z" />
<glyph unicode="x" horiz-adv-x="1103" d="M1108 946h-199l-348 -371l-350 371h-197l445 -475l-443 -498h195l350 392l348 -392h195l-442 498z" />
<glyph unicode="y" horiz-adv-x="935" d="M942 946h-158l-299 -612l-315 612h-164l402 -770l-334 -674h157z" />
<glyph unicode="z" horiz-adv-x="851" d="M838 883l-17 63h-772v-143h549l-586 -768l21 -62h803v144h-580z" />
<glyph unicode="{" horiz-adv-x="716" d="M629 -477v164h-60q-53 0 -90 32q-14 12 -22 42t-8 83v258q0 84 -14.5 150.5t-45.5 116.5q-47 72 -113 104q68 37 113 107q59 96 60 264v258q0 53 9 82.5t23 44.5q33 33 88 33h60v161h-54q-78 0 -137 -24.5t-94 -77.5q-61 -94 -61 -231v-297q0 -106 -43 -166 q-18 -27 -53 -43.5t-95 -26.5v-168q59 -10 94 -26.5t54 -43.5q43 -59 43 -165v-297q0 -137 63 -232q35 -53 93.5 -77.5t135.5 -24.5h54z" />
<glyph unicode="|" horiz-adv-x="477" d="M313 -604v2099h-149v-2099h149z" />
<glyph unicode="}" horiz-adv-x="716" d="M627 389v168q-61 10 -96 26.5t-56 43.5q-41 57 -41 166v297q0 133 -63 231q-70 102 -232 102h-51v-163h57q57 0 91 -33q14 -12 23 -42t9 -83v-258q0 -84 14.5 -150.5t47.5 -115.5q43 -72 110 -105q-68 -33 -112 -106q-31 -47 -45.5 -114t-14.5 -151v-258q0 -53 -9 -82.5 t-26 -44.5q-33 -33 -88 -32h-57v-162h51q78 0 138.5 24.5t95.5 77.5q29 47 45 106.5t16 125.5v297q0 55 11.5 96t31.5 69q20 27 54.5 43.5t95.5 26.5z" />
<glyph unicode="~" horiz-adv-x="1419" d="M1276 852l-102 -69l-76 -48q-74 -45 -131 -45q-68 0 -240 80q-172 84 -276 84q-55 0 -103.5 -16.5t-93.5 -44.5l-67 -44q-26 -17 -42 -30v-178q55 47 92 72.5t76 48.5q80 45 140 45q68 0 239 -80q172 -84 277 -84q53 0 101 16t93 45l67 44q26 17 42 30z" />
<glyph unicode="&#xa1;" horiz-adv-x="380" d="M283 721v250h-185v-252zM283 -479l-37 1057h-113l-37 -1057h187z" />
<glyph unicode="&#xa2;" horiz-adv-x="897" d="M874 1333h-145l-131 -372q-14 2 -31 2h-32q-219 0 -349 -150q-127 -141 -127 -354q0 -113 32 -205t97 -162q16 -16 36 -31.5t44 -31.5l-155 -443h145l137 389q55 -20 150 -20q41 0 80 5t75 15l63 18q26 7 54 17v160l-74 -29l-59 -20q-61 -18 -135 -19q-33 0 -58.5 4.5 t-46.5 10.5l240 674q2 0 3 -1.5t3 -1.5q47 -14 111 -45v168l-37 12q-16 5 -33 9zM545 815l-221 -633q-25 20 -39 39q-70 90 -70 238q0 156 88 260q80 88 205 94q10 2 18 2h19z" />
<glyph unicode="&#xa3;" horiz-adv-x="1187" d="M1114 1264l-78 155l-108 23q-199 0 -334 -166q-66 -80 -107 -161t-69 -161l-68 -204h-203v-148h170q-20 -41 -77 -258l-58 -210q-20 -73 -35 -85v-90l96 17l79 14q37 4 79.5 7t90.5 3q47 0 101 -6t116 -17l108.5 -16t65.5 -6q66 0 127 16q29 8 50 18l50 21v168 q-53 -29 -82 -40l-51 -19q-18 -6 -41 -10.5t-51 -4.5q-16 0 -42 5l-67 10q-16 4 -36.5 7t-43.5 7q-49 8 -95 13.5t-87 0.5l-174 -10l123 467h252v148h-207l61 172q29 80 68 146.5t88 119.5t106.5 79.5t124.5 22.5l52 -4z" />
<glyph unicode="&#xa4;" horiz-adv-x="1456" d="M1423 100v170q-74 -41 -132 -68.5t-122 -49.5q-123 -45 -268 -46q-268 0 -434 166q-72 68 -111 160h1000v133h-1045l-8 65q-4 34 -4 68q0 102 27 185h1030v133h-969q16 29 36.5 54.5t47.5 49.5q86 84 190.5 127t233.5 43q131 0 250 -39q61 -20 122.5 -45.5t139.5 -72.5 v182q-61 33 -121.5 55.5t-128.5 38.5q-129 33 -244 33q-334 0 -559 -213q-49 -47 -88 -101.5t-65 -113.5h-174v-133h127q-23 -90 -23 -183q0 -35 3 -68.5t7 -66.5h-114v-133h149q57 -154 178 -266q225 -209 566 -209q117 0 258 41q66 20 126 44.5t119 59.5z" />
<glyph unicode="&#x20ac;" horiz-adv-x="1456" d="M1423 100v170q-74 -41 -132 -68.5t-122 -49.5q-123 -45 -268 -46q-268 0 -434 166q-72 68 -111 160h1000v133h-1045l-8 65q-4 34 -4 68q0 102 27 185h1030v133h-969q16 29 36.5 54.5t47.5 49.5q86 84 190.5 127t233.5 43q131 0 250 -39q61 -20 122.5 -45.5t139.5 -72.5 v182q-61 33 -121.5 55.5t-128.5 38.5q-129 33 -244 33q-334 0 -559 -213q-49 -47 -88 -101.5t-65 -113.5h-174v-133h127q-23 -90 -23 -183q0 -35 3 -68.5t7 -66.5h-114v-133h149q57 -154 178 -266q225 -209 566 -209q117 0 258 41q66 20 126 44.5t119 59.5z" />
<glyph unicode="&#xa5;" horiz-adv-x="1196" d="M1210 1493h-204l-402 -700l-409 700h-207l436 -727h-358v-148h438l4 -32l-53 -72h-389v-147h442v-394h182v396h434v147h-434v96l12 9h422v147h-348z" />
<glyph unicode="&#xa6;" horiz-adv-x="477" d="M313 641v922h-149v-924zM313 -539v924h-149v-924h149z" />
<glyph unicode="&#xa7;" horiz-adv-x="851" d="M805 365q0 104 -55 196q-27 45 -64 89t-84 85l-190 170q-70 63 -109 129q-35 57 -35 115q0 74 54 113q57 41 112 41q51 0 94 -31q18 -14 32.5 -38t25.5 -71h155q-16 90 -44.5 141.5t-73.5 79.5q-86 57 -179 58q-137 0 -233 -78q-92 -80 -92 -221q0 -76 31 -139 q27 -57 63 -105q-72 -68 -117 -147q-49 -90 -49 -172q0 -102 53 -197q55 -92 150 -174l188 -170q70 -63 109 -129t39 -115q0 -41 -13.5 -66.5t-40.5 -45.5q-55 -41 -116 -41q-51 0 -94 30q-18 14 -32 38t-24 71h-155q16 -88 43.5 -140.5t72.5 -80.5q86 -57 181 -58 q139 0 233 78q94 80 94 221q0 37 -8 72t-22 68q-23 53 -66 104q35 35 66.5 75t54.5 85q45 84 45 160zM651 365q0 -51 -24 -107q-23 -47 -86 -108l-238 217q-16 16 -32.5 38.5t-34.5 51.5q-35 49 -35 127q0 55 22 106q12 23 32.5 50.5t53.5 58.5l240 -217q16 -16 32 -39 l35 -51q35 -53 35 -127z" />
<glyph unicode="&#xa8;" horiz-adv-x="716" d="M594 1118v191h-191v-193zM313 1116v193h-190v-193h190z" />
<glyph unicode="&#xa9;" horiz-adv-x="1720" d="M1649 729q0 322 -232 557q-231 231 -559 232q-322 0 -557 -232q-229 -231 -229 -559q0 -326 229 -557q236 -231 559 -231q326 0 557 231q232 235 232 559zM1501 727q0 -262 -190 -453q-184 -188 -453 -188q-262 0 -452 190q-186 184 -187 453q0 264 188.5 452.5 t452.5 188.5t453 -190q188 -185 188 -453zM1231 569l-137 49q-18 -63 -41 -100t-52 -63q-55 -49 -137 -49q-121 0 -184 94q-68 98 -68 243q0 125 70 209q68 84 192 84q76 0 130 -49q25 -23 43 -54.5t34 -68.5l148 39q-33 72 -67 118t-79 81q-88 70 -204 69q-190 0 -310 -129 q-115 -125 -114 -309q0 -205 118 -336q121 -133 297 -133q125 0 222 78q47 39 81.5 92t57.5 135z" />
<glyph unicode="&#xaa;" horiz-adv-x="604" d="M598 879v108l-26 -15l-23 -16q-31 -20 -47 -26l-6 22v312q0 84 -62 133q-57 45 -155 45q-66 0 -132 -27q-33 -14 -53 -25.5t-35 -25.5v-119l34 25q17 12 40 24q39 25 72 35l33 8q16 4 34 4q55 0 84 -22q10 -8 17.5 -24.5t7.5 -45.5v-45q-68 -4 -105 -12q-23 -4 -42 -9 l-41 -12q-66 -23 -115 -71q-51 -49 -51 -131q0 -66 57 -117q29 -23 63.5 -35t75.5 -12q29 0 54.5 7t54.5 17q35 16 59 35q6 -31 23 -43q18 -14 35 -14q20 0 40.5 8t40.5 19q8 4 15 8l12 8q10 6 18 12zM381 967q-12 -10 -28 -20l-31 -19q-39 -23 -86 -23q-25 0 -42.5 7.5 t-31.5 17.5q-20 14 -21 43q0 41 29 63q39 35 84 47q29 10 51.5 14.5t38.5 6.5q10 2 19.5 1t17.5 -1v-137z" />
<glyph unicode="&#xab;" d="M1057 -14l-410 487l404 488h-191l-405 -488l409 -487h193zM623 -14l-410 487l403 488h-190l-406 -488l410 -487h193z" />
<glyph unicode="&#xac;" horiz-adv-x="1376" d="M932 1004q-29 10 -48 19l-39 18q-19 9 -43 22l-57 31l57 28l43 22l39 18q19 9 48 20l-39 69q-29 -23 -47 -34l-35 -23q-16 -12 -38 -26l-52 -31q2 37 3 62.5t3 47t3 43t5 51.5h-76l6.5 -52t3.5 -42.5t1 -48.5q0 -25 2 -61l-52 31q-22 13 -38 26l-35 23q-18 12 -47 34 l-37 -69q27 -10 47 -19.5l39 -18.5l41 -22q23 -12 57 -28l-57 -31l-41 -22q-18 -9 -39 -18t-47 -19l37 -72q29 23 46 35l36 24l38 24l52 34q-2 -39 -2 -66q0 -25 -1 -46.5t-3 -42t-7 -50.5h76q-4 31 -5 51t-3 41.5t-3 47.5t-3 65l52 -34l38 -24l36 -24q17 -12 46 -35z M1321 -90h-621l-4 565l406 498v-973h102v1128h-98l-418 -512l-420 512h-100v-1128h104v973l404 -494l-53 -51v-563l-283 291l-57 -56l594 -618l59 57l-285 295l594 2z" />
<glyph unicode="&#xad;" horiz-adv-x="673" d="M604 492v126h-536v-126h536z" />
<glyph unicode="&#xae;" horiz-adv-x="1720" d="M1649 729q0 322 -232 557q-231 231 -559 232q-322 0 -557 -232q-229 -231 -229 -559q0 -326 229 -557q236 -231 559 -231q326 0 557 231q232 235 232 559zM1501 727q0 -262 -190 -453q-184 -188 -453 -188q-262 0 -452 190q-186 184 -187 453q0 264 188.5 452.5 t452.5 188.5t453 -190q188 -185 188 -453zM1227 291l-72 166l-33 68q-16 34 -39 69q-33 49 -92 82q47 10 82 33.5t62 54.5q47 63 47 143q0 104 -74 172q-39 35 -100.5 51.5t-145.5 16.5h-334v-856h150v354h51q111 0 172 -74q29 -37 66 -104.5t82 -175.5h178zM1016 901 q0 -61 -41 -92q-20 -16 -62.5 -25.5t-113.5 -9.5h-121v242h145q49 0 86 -8.5t64 -20.5q20 -10 31.5 -30.5t11.5 -55.5z" />
<glyph unicode="&#xaf;" horiz-adv-x="716" d="M655 1147v156h-596v-158z" />
<glyph unicode="&#xb0;" horiz-adv-x="860" d="M741 1130q0 129 -90 220q-96 92 -221 92q-127 0 -219 -92.5t-92 -221.5q0 -127 92 -219t221 -92q123 0 219 92q90 90 90 221zM608 1128q0 -74 -51 -124q-53 -53 -127 -54q-76 0 -125 54q-53 49 -53 126q0 72 53 125q49 53 127 54q72 0 125 -54q51 -49 51 -127z" />
<glyph unicode="&#xb2;" horiz-adv-x="673" d="M651 655v101h-379l9 8q6 6 10 8l48 49q24 25 46 53q23 23 46.5 51.5t47.5 65.5l30 45q15 23 28 51q29 63 28 117q0 104 -86 172q-84 66 -203 66q-39 0 -73.5 -7.5t-65.5 -17.5q-51 -20 -94 -55v-131q51 41 77.5 59.5t49.5 28.5q47 20 100 20q76 0 127 -41q49 -37 49 -94 q0 -55 -30 -110q-16 -31 -36 -60.5t-44 -58.5q-33 -41 -66 -74l-63 -61l-70 -61l-84 -72v-54z" />
<glyph unicode="&#xb3;" horiz-adv-x="673" d="M598 885q0 74 -55 129q-33 33 -84 51q59 23 84 53q43 51 43 113q0 49 -21.5 87t-62.5 66q-78 57 -201 58q-41 0 -74.5 -5t-62.5 -16q-23 -10 -43.5 -18t-40.5 -21v-106l57 27l45 18q20 8 47 13t62 5q78 0 131 -36q27 -18 37 -36t10 -40q0 -47 -51 -78q-59 -37 -137 -37 h-33v-102h39q94 0 145 -39q47 -35 47 -94q0 -55 -49 -93q-51 -39 -135 -39q-63 0 -113 13q-23 6 -46 13l-62 20v-103q25 -10 48 -16l52 -15q59 -14 127 -14q66 0 117 16.5t94 49.5q86 67 86 176z" />
<glyph unicode="&#xb4;" horiz-adv-x="716" d="M682 1413h-240l-247 -373h124z" />
<glyph unicode="&#xb5;" horiz-adv-x="1196" d="M993 -27v973h-149v-663q-33 -61 -103 -119q-72 -61 -161 -62q-109 0 -166.5 70t-57.5 201v573h-149v-1335h149v436q41 -41 101 -65q70 -27 141 -27q76 0 156 45q49 27 90 88v-115h149z" />
<glyph unicode="&#xb6;" horiz-adv-x="1398" d="M1321 1276v190h-723q-227 0 -362 -120q-137 -119 -138 -326q0 -203 131 -326q119 -113 320 -119v-1034h182v1735h213v-1735h182v1735h195z" />
<glyph unicode="&#xb7;" horiz-adv-x="604" d="M340 584v252h-182v-254z" />
<glyph unicode="&#x2219;" horiz-adv-x="604" d="M340 584v252h-182v-254z" />
<glyph unicode="&#xb8;" horiz-adv-x="716" d="M543 -207q0 63 -45 113q-16 18 -35 28.5t-41 14.5l24 94h-112l-60 -197q55 0 79 -3t36 -13q23 -12 23 -39q0 -25 -23 -37q-14 -8 -34.5 -13t-49.5 -3l-92 6l-16 -115l118 -14q96 0 162 49q66 53 66 129z" />
<glyph unicode="&#xb9;" horiz-adv-x="673" d="M397 655l-2 779h-119l3 -781z" />
<glyph unicode="&#xba;" horiz-adv-x="761" d="M715 1124q0 139 -97 228q-96 90 -237 90q-137 0 -240 -92q-96 -90 -96 -226q0 -137 96.5 -227t239.5 -90q139 0 237 92q97 88 97 225zM594 1124q0 -88 -62 -147q-61 -61 -151 -62q-90 0 -154 64q-63 61 -63 145q0 86 65 148q61 61 152 61q88 0 151 -63q62 -62 62 -146z " />
<glyph unicode="&#xbb;" d="M1055 473l-406 488h-190l403 -488l-409 -487h192zM621 473l-406 488h-190l403 -488l-410 -487h193z" />
<glyph unicode="&#xbc;" horiz-adv-x="1792" d="M1538 256v94h-123v412h-61l-465 -453v-55h409v-281h117v283h123zM1430 1442h-146l-1112 -1524h143zM487 655l-2 779h-118l2 -781zM1298 348h-229l229 223v-223z" />
<glyph unicode="&#xbd;" horiz-adv-x="1792" d="M1622 -27v103h-379q2 2 9.5 8t9.5 8l48 49q24 25 46 54q23 23 47 51t47 65l30 45q15 23 27 52q29 63 29 116q0 104 -86 172q-84 66 -203 66q-39 0 -73.5 -7t-65.5 -18q-51 -20 -94 -55v-131q51 41 77.5 59.5t49.5 28.5q47 20 100 20q76 0 127 -41q49 -37 49 -94 q0 -55 -31 -110q-16 -31 -35.5 -60.5t-41.5 -58.5q-35 -41 -68 -74l-63 -61l-70 -61l-84 -72v-54h598zM1403 1442h-146l-1112 -1524h142zM461 655l-2 779h-119l2 -781z" />
<glyph unicode="&#xbe;" horiz-adv-x="1792" d="M1616 256v94h-123v412h-63l-463 -453v-55h409v-281h117v283h123zM1495 1442h-145l-1112 -1524h143zM674 885q0 74 -56 129q-33 33 -83 51q59 23 83 53q43 51 44 113q0 49 -22 87t-62 66q-78 57 -201 58q-41 0 -75 -5t-62 -16q-23 -10 -43.5 -18t-40.5 -21v-106l57 27 l45 18q20 8 47 13t62 5q78 0 131 -36q27 -18 37 -36t10 -40q0 -47 -51 -78q-59 -37 -138 -37h-32v-102h38q94 0 146 -39q47 -35 47 -94q0 -55 -49 -93q-51 -39 -135 -39q-63 0 -113 13q-23 6 -46 13l-62 20v-103q25 -10 48 -16l52 -15q59 -14 127 -14q66 0 117 16.5t94 49.5 q86 67 86 176zM1376 348h-229l229 223v-223z" />
<glyph unicode="&#xbf;" horiz-adv-x="604" d="M418 743v250h-185v-252zM543 -403l-54 137q-12 -6 -33.5 -18.5t-44 -23.5t-44 -20.5t-33.5 -9.5q-57 0 -94 49q-37 45 -37 119q0 82 39 166q20 41 46.5 89t61.5 103q27 43 44.5 78t27.5 64q18 55 18 121q0 49 -28 110q-14 25 -29.5 48.5t-44.5 56.5l-70 -62 q18 -37 27 -57l12 -31q2 -10 3 -20.5t1 -20.5q0 -39 -12 -82q-8 -20 -22.5 -45.5t-36.5 -60.5l-87 -131q-38 -59 -61 -103q-45 -90 -45 -213q0 -61 16.5 -116.5t53.5 -102.5q35 -51 89 -74.5t126 -23.5q47 0 92 16q10 4 41 20l52 25z" />
<glyph unicode="&#xc0;" horiz-adv-x="1433" d="M877 1509l-248 371h-240l363 -371h125zM1430 -27l-666 1461h-92l-670 -1461h170l221 486h649l222 -486h166zM977 600h-520l260 569z" />
<glyph unicode="&#xc1;" horiz-adv-x="1433" d="M1130 1880h-241l-246 -373h123zM1430 -27l-666 1461h-92l-670 -1461h170l221 486h649l222 -486h166zM977 600h-520l260 569z" />
<glyph unicode="&#xc2;" horiz-adv-x="1433" d="M1047 1470l-256 388h-148l-254 -390h135l193 211l192 -211zM1430 -27l-666 1461h-92l-670 -1461h170l221 486h649l222 -486h166zM977 600h-520l260 569z" />
<glyph unicode="&#xc3;" horiz-adv-x="1433" d="M1075 1788h-110q-6 -43 -13.5 -60.5t-15.5 -23.5q-18 -16 -35 -16q-39 0 -158 49q-123 53 -192 53q-47 0 -85 -16.5t-63 -53.5q-23 -33 -35 -73.5t-12 -104.5h115q4 45 11 61.5t16 22.5q20 16 37 16q35 0 155 -49q119 -53 193 -53q98 0 147 70q23 33 34 74t11 104z M1430 -27l-666 1461h-92l-670 -1461h170l221 486h649l222 -486h166zM977 600h-520l260 569z" />
<glyph unicode="&#xc4;" horiz-adv-x="1433" d="M954 1565v190h-190v-192zM674 1563v192h-191v-192h191zM1430 -27l-666 1461h-92l-670 -1461h170l221 486h649l222 -486h166zM977 600h-520l260 569z" />
<glyph unicode="&#xc5;" horiz-adv-x="1433" d="M1028 1734q0 129 -90 220q-96 92 -221 92q-127 0 -219 -92.5t-92 -221.5q0 -127 92 -219t221 -92q123 0 219 92q90 90 90 221zM895 1732q0 -74 -51 -124q-53 -53 -127 -54q-76 0 -125 54q-53 49 -53 126q0 72 53 125q49 53 127 54q72 0 125 -54q51 -49 51 -127zM1430 -27 l-666 1461h-92l-670 -1461h170l221 486h649l222 -486h166zM977 600h-520l260 569z" />
<glyph unicode="&#xc6;" horiz-adv-x="1859" d="M1796 -27v144h-670v516l637 2v139h-637v508h656v141h-871l-903 -1450h176l412 662h371v-662h829zM967 776h-279l279 453v-453z" />
<glyph unicode="&#xc7;" horiz-adv-x="1456" d="M1389 100v170q-74 -41 -133.5 -68.5t-122.5 -49.5q-121 -45 -269 -46q-264 0 -434 166q-166 162 -166 426q0 252 170 422q86 84 190.5 127t233.5 43q133 0 250 -39q63 -20 124.5 -45.5t139.5 -72.5v182q-63 33 -123.5 55.5t-128.5 38.5q-129 33 -243 33q-336 0 -558 -213 q-223 -211 -223 -531q0 -326 223 -534q168 -158 404 -195l-37 -123q55 0 78.5 -3t36.5 -13q23 -12 22 -39q0 -25 -22 -37q-14 -8 -35 -13t-49 -3l-90 6l-19 -115l119 -14q96 0 162 49q66 53 65 129q0 45 -26 86q-23 35 -66 51q12 0 28.5 15.5t31.5 17.5q23 2 46 6l48 8 q47 6 95 16.5t97 27t94.5 35.5t86.5 44z" />
<glyph unicode="&#xc8;" horiz-adv-x="1054" d="M770 1499l-248 371h-239l364 -373zM967 -27v144h-670v516l637 2v139h-637v508h655v141h-815v-1450h830z" />
<glyph unicode="&#xc9;" horiz-adv-x="1054" d="M938 1860h-242l-245 -373h122zM965 -27v144h-670v516l637 2v139h-637v508h655v141h-815v-1450h830z" />
<glyph unicode="&#xca;" horiz-adv-x="1054" d="M856 1491l-258 387h-145l-254 -389h135l192 211l193 -211zM967 -27v144h-670v516l637 2v139h-637v508h655v141h-815v-1450h830z" />
<glyph unicode="&#xcb;" horiz-adv-x="1054" d="M764 1565v190h-191v-192zM483 1563v192h-190v-192h190zM967 -27v144h-670v516l637 2v139h-637v508h655v141h-815v-1450h830z" />
<glyph unicode="&#xcc;" horiz-adv-x="446" d="M473 1489l-248 371h-241l364 -373zM305 -27v1450h-158v-1450h158z" />
<glyph unicode="&#xcd;" horiz-adv-x="446" d="M643 1880h-242l-247 -373h125zM305 -27v1450h-158v-1450h158z" />
<glyph unicode="&#xce;" horiz-adv-x="446" d="M555 1470l-258 388h-145l-256 -390h137l190 211l195 -211zM301 -27v1450h-158v-1450h158z" />
<glyph unicode="&#xcf;" horiz-adv-x="446" d="M461 1565v190h-191v-192zM180 1563v192h-190v-192h190zM299 -27v1450h-158v-1450h158z" />
<glyph unicode="&#xd0;" horiz-adv-x="1591" d="M1513 696q0 338 -213 533q-104 98 -245.5 144t-319.5 48l-524 9v-660h-209v-141h211v-656h537q358 0 561 203q100 102 151 231t51 289zM1343 696q0 -266 -169 -422q-172 -160 -453 -159h-350v516h454v141h-454v510h354q283 0 451 -162q170 -160 170 -424h-3z" />
<glyph unicode="&#xd1;" horiz-adv-x="1658" d="M1196 1788h-113q-6 -43 -13 -60.5t-15 -23.5q-16 -16 -35 -16q-39 0 -158 49q-119 53 -192 53q-47 0 -85 -16.5t-63 -53.5q-23 -33 -34 -73.5t-11 -104.5h113q4 45 11 61.5t15 22.5q20 16 37 16q35 0 156 -49q123 -53 192 -53q98 0 148 70q23 33 35 74t12 104zM1487 -27 v1450h-160v-1181l-244 284l-243 275l-267 303l-270 319h-129v-1450h160v1180l1022 -1180h131z" />
<glyph unicode="&#xd2;" horiz-adv-x="1769" d="M1067 1509l-248 371h-239l362 -373zM1651 698q0 317 -221 531q-219 213 -545 213q-324 0 -545 -215q-219 -211 -219 -529q0 -158 55 -291t166 -239q219 -213 543 -213t545 215q221 211 221 528zM1483 698q0 -242 -176 -417q-172 -174 -422 -175q-250 0 -424 175 q-172 172 -172 417q0 244 174 418t422 174q250 0 422 -174q176 -176 176 -418z" />
<glyph unicode="&#xd3;" horiz-adv-x="1769" d="M1296 1880h-239l-248 -373h125zM1651 698q0 317 -221 531q-219 213 -545 213q-324 0 -545 -215q-219 -211 -219 -529q0 -158 55 -291t166 -239q219 -213 543 -213t545 215q221 211 221 528zM1483 698q0 -242 -176 -417q-172 -174 -422 -175q-250 0 -424 175 q-172 172 -172 417q0 244 174 418t422 174q250 0 422 -174q176 -176 176 -418z" />
<glyph unicode="&#xd4;" horiz-adv-x="1769" d="M1212 1491l-264 387h-139l-256 -389h137l191 211l194 -211zM1651 698q0 317 -221 531q-219 213 -545 213q-324 0 -545 -215q-219 -211 -219 -529q0 -158 55 -291t166 -239q219 -213 543 -213t545 215q221 211 221 528zM1483 698q0 -242 -176 -417q-172 -174 -422 -175 q-250 0 -424 175q-172 172 -172 417q0 244 174 418t422 174q250 0 422 -174q176 -176 176 -418z" />
<glyph unicode="&#xd5;" horiz-adv-x="1769" d="M1243 1788h-110q-8 -43 -14.5 -60.5t-16.5 -23.5q-16 -16 -35 -16q-35 0 -158 49q-119 53 -192 53q-47 0 -84 -16.5t-64 -53.5q-23 -33 -34 -73.5t-11 -104.5h115q4 45 10 61.5t15 22.5q20 16 36 16q35 0 156 -49q123 -53 193 -53q100 0 149 70q23 33 34 74t11 104z M1651 698q0 317 -221 531q-219 213 -545 213q-324 0 -545 -215q-219 -211 -219 -529q0 -158 55 -291t166 -239q219 -213 543 -213t545 215q221 211 221 528zM1483 698q0 -242 -176 -417q-172 -174 -422 -175q-250 0 -424 175q-172 172 -172 417q0 244 174 418t422 174 q250 0 422 -174q176 -176 176 -418z" />
<glyph unicode="&#xd6;" horiz-adv-x="1769" d="M1122 1565v190h-190v-192zM842 1563v192h-191v-192h191zM1651 698q0 317 -221 531q-219 213 -545 213q-324 0 -545 -215q-219 -211 -219 -529q0 -158 55 -291t166 -239q219 -213 543 -213t545 215q221 211 221 528zM1483 698q0 -242 -176 -417q-172 -174 -422 -175 q-250 0 -424 175q-172 172 -172 417q0 244 174 418t422 174q250 0 422 -174q176 -176 176 -418z" />
<glyph unicode="&#xd7;" horiz-adv-x="1419" d="M1157 373l-346 346l346 346l-102 102l-346 -346l-347 346l-100 -102l346 -346l-346 -346l103 -103l346 346l346 -346z" />
<glyph unicode="&#xd8;" horiz-adv-x="1769" d="M1651 698q0 299 -203 508l139 154l-119 84l-127 -144q-190 141 -456 142q-324 0 -545 -215q-219 -211 -219 -529q0 -301 201 -512l8 -8l-133 -149l116 -84l127 141q186 -131 445 -131q324 0 545 215q221 211 221 528zM1483 698q0 -242 -176 -417q-172 -174 -422 -175 q-193 0 -336 101l788 876q146 -162 146 -385zM1233 1180l-793 -877q-152 164 -151 395q0 244 174 418t422 174q201 1 348 -110z" />
<glyph unicode="&#xd9;" horiz-adv-x="1501" d="M993 1489l-248 371h-241l364 -373zM1362 606v817h-160v-809q0 -119 -31.5 -210t-91.5 -160q-121 -137 -325 -138q-209 0 -332 134q-121 133 -121 364v819h-160v-827q0 -285 170 -463q172 -178 441 -178q272 0 440 186q170 182 170 465z" />
<glyph unicode="&#xda;" horiz-adv-x="1501" d="M1161 1860h-239l-248 -373h123zM1362 606v817h-160v-809q0 -119 -31.5 -210t-91.5 -160q-121 -137 -325 -138q-209 0 -332 134q-121 133 -121 364v819h-160v-827q0 -285 170 -463q172 -178 441 -178q272 0 440 186q170 182 170 465z" />
<glyph unicode="&#xdb;" horiz-adv-x="1501" d="M1079 1470l-258 388h-147l-254 -390h137l191 211l194 -211zM1362 606v817h-160v-809q0 -119 -31.5 -210t-91.5 -160q-121 -137 -325 -138q-209 0 -332 134q-121 133 -121 364v819h-160v-827q0 -285 170 -463q172 -178 441 -178q272 0 440 186q170 182 170 465z" />
<glyph unicode="&#xdc;" horiz-adv-x="1501" d="M987 1565v190h-190v-192zM707 1563v192h-191v-192h191zM1362 606v817h-160v-809q0 -119 -31.5 -210t-91.5 -160q-121 -137 -325 -138q-209 0 -332 134q-121 133 -121 364v819h-160v-827q0 -285 170 -463q172 -178 441 -178q272 0 440 186q170 182 170 465z" />
<glyph unicode="&#xdd;" horiz-adv-x="1253" d="M1036 1860h-239l-248 -373h125zM1278 1421h-197l-452 -538l-457 540h-197l572 -684v-766h160v766z" />
<glyph unicode="&#xde;" horiz-adv-x="1097" d="M1022 698q0 195 -131 299q-129 100 -352 101h-248v325h-160v-1450h160v330h252q223 0 350 100q129 105 129 295zM856 700q0 -125 -82 -188q-84 -68 -239 -68h-244v512h256q145 0 229 -71q80 -66 80 -185z" />
<glyph unicode="&#xdf;" d="M983 408q0 160 -78 260q-61 78 -143 110q80 45 112 123q45 100 46 176q0 160 -117 262q-113 102 -289 103q-170 0 -287 -113q-113 -113 -112 -342v-1014h151v945q0 129 17.5 205.5t50.5 111.5q68 74 174 74t182 -60q35 -27 54.5 -70.5t19.5 -109.5q0 -96 -51 -159.5 t-123 -63.5h-43v-139q94 -10 145 -36t78 -65q55 -84 55 -198q0 -129 -65 -220q-63 -86 -174 -86q-18 0 -36 3.5t-34 7.5t-32 9l-50 17v-157q27 -8 41 -11.5l29 -7.5q16 -4 33.5 -6t40.5 -2q184 0 296 137q109 134 109 316z" />
<glyph unicode="&#xe0;" horiz-adv-x="1038" d="M702 1042l-245 371h-242l365 -373zM965 -31v977h-148v-49q-33 16 -64.5 28.5t-64.5 22.5q-66 16 -123 17q-215 0 -354 -152q-135 -143 -135 -379q0 -104 31.5 -189t99.5 -155q135 -135 338 -135q84 0 164 22q29 8 54 16.5l52 18.5v-43h150zM817 168q-45 -25 -100 -47 q-61 -25 -154 -25q-78 0 -136 23.5t-105 70.5q-90 90 -91 246q0 166 101 273q102 109 254 108q43 0 78.5 -7t68.5 -22q57 -27 84 -43v-577z" />
<glyph unicode="&#xe1;" horiz-adv-x="1019" d="M866 1413h-239l-248 -373h125zM958 -31v977h-147v-49q-57 31 -127 51q-66 16 -123 17q-215 0 -356 -152q-135 -147 -135 -379q0 -209 133 -344q131 -135 338 -135q84 0 164 22l53 17q27 8 51 18v-43h149zM811 168l-47 -25q-25 -12 -53 -22q-61 -25 -152 -25 q-152 0 -242 94q-92 88 -92 246q0 166 103 273q98 109 254 108q78 0 147 -29q51 -23 82 -43v-577z" />
<glyph unicode="&#xe2;" horiz-adv-x="1060" d="M877 1024l-256 387h-148l-254 -389h135l193 211l192 -211zM969 -31v977h-148v-49q-57 31 -127 51q-66 16 -123 17q-215 0 -354 -152q-137 -145 -137 -379q0 -209 133 -344q131 -135 338 -135q84 0 164 22q29 8 54.5 16.5t49.5 18.5v-43h150zM821 168l-47 -25 q-25 -12 -53 -22q-61 -25 -152 -25q-152 0 -241 94q-92 92 -92 246q0 166 102 273q98 109 254 108q80 0 147 -29q51 -23 82 -43v-577z" />
<glyph unicode="&#xe3;" horiz-adv-x="1036" d="M899 1341h-111q-6 -43 -13 -60t-15 -24q-18 -16 -35 -16q-39 0 -158 49q-123 53 -192 53q-47 0 -85 -16t-63 -53q-23 -33 -35 -74t-12 -104h115q4 45 11 61.5t13 22.5q23 16 39 16q33 0 156 -49q119 -53 193 -53q98 0 147 69q23 33 34 74t11 104zM963 -31v977h-148v-49 q-57 31 -127 51q-66 16 -123 17q-215 0 -354 -152q-137 -145 -137 -379q0 -209 133 -344q131 -135 338 -135q84 0 164 22q29 8 54 16.5t50 18.5v-43h150zM815 168l-47 -25q-25 -12 -53 -22q-61 -25 -152 -25q-152 0 -241 94q-92 92 -93 246q0 166 103 273q98 109 254 108 q80 0 147 -29q51 -23 82 -43v-577z" />
<glyph unicode="&#xe4;" horiz-adv-x="1054" d="M784 1118v191h-192v-193zM502 1116v193h-191v-193h191zM979 -31v977h-148v-59q-59 33 -126 55q-63 23 -125 23q-213 0 -355 -152q-135 -147 -135 -379q0 -209 133 -344q131 -135 338 -135q84 0 164 22q27 8 53.5 21.5t50.5 24.5v-54h150zM831 178q-23 -12 -47 -29.5 t-53 -27.5q-61 -25 -153 -25q-78 0 -136.5 23.5t-105.5 70.5q-90 90 -90 246q0 166 102 273q98 109 254 108q78 0 146 -29q29 -12 49 -27l34 -26v-557z" />
<glyph unicode="&#xe5;" horiz-adv-x="1097" d="M891 1400q0 129 -90 220q-96 92 -221 92q-127 0 -219 -92.5t-92 -221.5q0 -127 92 -219t221 -92q123 0 219 92q90 90 90 221zM758 1398q0 -74 -51 -124q-53 -53 -127 -54q-76 0 -125 54q-53 49 -53 126q0 72 53 125q49 53 127 54q72 0 125 -54q51 -49 51 -127zM979 -31 v977h-148v-59q-59 33 -126 55q-63 23 -125 23q-213 0 -355 -152q-135 -147 -135 -379q0 -209 133 -344q131 -135 338 -135q84 0 164 22q27 8 53.5 21.5t50.5 24.5v-54h150zM831 178q-23 -12 -47 -29.5t-53 -27.5q-61 -25 -153 -25q-78 0 -136.5 23.5t-105.5 70.5 q-90 90 -90 246q0 166 102 273q98 109 254 108q78 0 146 -29q29 -12 49 -27l34 -26v-557z" />
<glyph unicode="&#xe6;" horiz-adv-x="1613" d="M1559 469q0 119 -27 206t-80 154q-111 135 -278 136q-92 0 -166 -39q-16 -8 -36 -27.5t-34 -30.5v78h-147v-59q-63 35 -125 55q-68 23 -125 23q-215 0 -355 -152q-137 -145 -137 -379q0 -209 133 -344q131 -135 338 -135q84 0 164 22q29 8 54.5 21.5t52.5 24.5v-54h149 v94q16 -16 41 -36.5t43 -30.5q78 -41 170 -41q109 0 199 45q43 20 77.5 43t69.5 49v184q-51 -49 -84 -75.5t-72 -53.5q-72 -45 -155 -45q-123 0 -209 101q-63 74 -82 172v94h621zM1380 600h-430q10 35 22.5 65.5t28.5 53.5q68 98 177 98q90 0 141 -63q47 -55 61 -156v2z M791 178q-20 -12 -46 -29.5t-55 -27.5q-59 -25 -151 -25q-152 0 -242 94q-92 92 -92 246q0 84 26.5 151.5t75.5 121.5q102 109 254 108q43 0 79 -7t69 -22q29 -12 48 -27.5t36 -25.5z" />
<glyph unicode="&#xe7;" horiz-adv-x="897" d="M834 10v160q-43 -18 -73 -29l-61 -20q-61 -18 -135 -19q-80 0 -140 25t-103 72q-90 96 -91 260q0 158 91 260q86 98 231 98q72 0 129 -20l58 -21q30 -10 77 -33v168q-41 14 -71.5 23.5t-61.5 15.5q-57 14 -133 15q-215 0 -348 -152q-127 -145 -127 -354q0 -229 129 -367 q88 -92 215 -119l-37 -127q53 0 77.5 -3t37.5 -13q20 -12 20 -39q0 -25 -22 -37q-12 -8 -34 -13t-50 -3l-90 6l-19 -115l121 -14q94 0 159.5 49t65.5 129q0 51 -26 86q-27 39 -66 51q6 0 17.5 14.5t19.5 16.5q12 2 24.5 3t24.5 1q31 4 58.5 9.5t56.5 13.5q25 6 42.5 12 t33.5 10z" />
<glyph unicode="&#xe8;" horiz-adv-x="1030" d="M756 1042l-248 371h-242l365 -373zM961 467q0 123 -31 210t-90 152q-123 135 -314 136q-197 0 -323 -146q-125 -139 -125 -346q0 -223 139 -373q141 -145 358 -145q117 0 218 47q43 18 78.5 41t70.5 49v182q-51 -47 -88 -73.5t-82 -50.5q-84 -47 -188 -48 q-78 0 -139.5 27t-112.5 76q-94 94 -101 227v37zM780 600h-526q20 68 59 117q80 100 215 100q59 0 102.5 -17.5t74.5 -47.5q53 -53 75 -154v2z" />
<glyph unicode="&#xe9;" horiz-adv-x="1030" d="M924 1413h-240l-248 -373h123zM961 467q0 123 -31 210t-90 152q-123 135 -314 136q-197 0 -323 -146q-125 -139 -125 -346q0 -223 139 -373q141 -145 358 -145q117 0 218 47q43 18 78.5 41t70.5 49v182q-51 -47 -88 -73.5t-82 -50.5q-84 -47 -188 -48q-78 0 -139.5 27 t-112.5 76q-94 94 -101 227v37zM780 600h-526q20 68 59 117q80 100 215 100q59 0 102.5 -17.5t74.5 -47.5q53 -53 75 -154v2z" />
<glyph unicode="&#xea;" horiz-adv-x="1030" d="M842 1024l-258 387h-148l-254 -389h137l191 211l195 -211zM961 467q0 123 -31 210t-90 152q-123 135 -314 136q-197 0 -323 -146q-125 -139 -125 -346q0 -223 139 -373q141 -145 358 -145q117 0 218 47q43 18 78.5 41t70.5 49v182q-51 -47 -88 -73.5t-82 -50.5 q-84 -47 -188 -48q-78 0 -139.5 27t-112.5 76q-94 94 -101 227v37zM780 600h-526q20 68 59 117q80 100 215 100q59 0 102.5 -17.5t74.5 -47.5q53 -53 75 -154v2z" />
<glyph unicode="&#xeb;" horiz-adv-x="1030" d="M750 1118v191h-191v-193zM469 1116v193h-190v-193h190zM961 467q0 123 -31 210t-90 152q-123 135 -314 136q-197 0 -323 -146q-125 -139 -125 -346q0 -223 139 -373q141 -145 358 -145q117 0 218 47q43 18 78.5 41t70.5 49v182q-51 -47 -88 -73.5t-82 -50.5 q-84 -47 -188 -48q-78 0 -139.5 27t-112.5 76q-94 94 -101 227v37zM780 600h-526q20 68 59 117q80 100 215 100q59 0 102.5 -17.5t74.5 -47.5q53 -53 75 -154v2z" />
<glyph unicode="&#xec;" horiz-adv-x="403" d="M449 1042l-248 371h-240l363 -373zM281 -27v973h-150v-973h150z" />
<glyph unicode="&#xed;" horiz-adv-x="403" d="M537 1413h-240l-248 -373h123zM283 -27v973h-150v-973h150z" />
<glyph unicode="&#xee;" horiz-adv-x="403" d="M530 1024l-256 387h-147l-254 -389h135l193 211l192 -211zM276 -27v973h-149v-973h149z" />
<glyph unicode="&#xef;" horiz-adv-x="403" d="M438 1118v191h-190v-193zM158 1116v193h-191v-193h191zM276 -27v973h-149v-973h149z" />
<glyph unicode="&#xf0;" horiz-adv-x="1202" d="M1126 508q0 309 -165 553q-51 74 -136 151l226 105l-56 115l-278 -134q-43 33 -104.5 64t-153.5 65l-60 -114q53 -25 94 -47l68 -39l-233 -109l51 -114l305 141q33 -25 55 -46l39 -38q82 -92 127 -205q-74 61 -143 84q-74 25 -152 25q-233 0 -381 -146 q-150 -143 -149 -364q0 -215 151 -359q150 -143 377 -143q231 0 375 158q143 151 143 397zM971 469q0 -168 -103 -274q-98 -106 -262 -107q-164 0 -272 107q-109 102 -109 258q0 158 106.5 268t272.5 110q162 0 264 -104q103 -102 103 -258z" />
<glyph unicode="&#xf1;" horiz-adv-x="1054" d="M889 1341h-111q-8 -43 -15 -60t-15 -24q-16 -16 -35 -16q-35 0 -158 49q-119 53 -193 53q-47 0 -83.5 -16t-63.5 -53q-23 -33 -34 -74t-11 -104h113q6 45 12 61.5t14 22.5q20 16 37 16q35 0 156 -49q123 -53 192 -53q100 0 150 69q23 33 34 74t11 104zM928 -27v582 q0 92 -24.5 168t-78.5 131q-104 111 -274 111q-96 0 -176 -45q-53 -31 -101 -97v123h-147v-973h149v668q23 35 49.5 65.5t59.5 57.5q63 53 166 53q111 0 168 -76q29 -35 44 -90t15 -127v-551h150z" />
<glyph unicode="&#xf2;" horiz-adv-x="1165" d="M827 1042l-247 371h-240l362 -373zM1077 459q0 213 -141 360q-141 145 -352 146q-215 0 -355 -146q-141 -147 -141 -360q0 -209 143 -359q139 -145 353 -145q211 0 354 145q139 150 139 359zM922 459q0 -147 -99 -252q-102 -104 -239 -105q-139 0 -240 107 q-100 100 -100 250q0 152 100 254q98 104 240 104q139 0 239 -106q99 -102 99 -252z" />
<glyph unicode="&#xf3;" horiz-adv-x="1165" d="M995 1413h-239l-248 -373h125zM1077 459q0 213 -141 360q-141 145 -352 146q-215 0 -355 -146q-141 -147 -141 -360q0 -209 143 -359q139 -145 353 -145q211 0 354 145q139 150 139 359zM922 459q0 -147 -99 -252q-102 -104 -239 -105q-139 0 -240 107q-100 100 -100 250 q0 152 100 254q98 104 240 104q139 0 239 -106q99 -102 99 -252z" />
<glyph unicode="&#xf4;" horiz-adv-x="1165" d="M913 1024l-258 387h-145l-256 -389h137l193 211l192 -211zM1077 459q0 213 -141 360q-141 145 -352 146q-215 0 -355 -146q-141 -147 -141 -360q0 -209 143 -359q139 -145 353 -145q211 0 354 145q139 150 139 359zM922 459q0 -147 -99 -252q-102 -104 -239 -105 q-139 0 -240 107q-100 100 -100 250q0 152 100 254q98 104 240 104q139 0 239 -106q99 -102 99 -252z" />
<glyph unicode="&#xf5;" horiz-adv-x="1165" d="M942 1341h-111q-8 -43 -14 -60t-14 -24q-18 -16 -35 -16q-23 0 -60.5 12.5t-99.5 36.5q-119 53 -190 53q-47 0 -85 -16t-65 -53q-23 -33 -34 -74t-11 -104h115q4 45 10 61.5t14 22.5q23 16 39 16q33 0 156 -49q119 -53 193 -53q47 0 84.5 17t62.5 52q23 33 34 74t11 104z M1077 459q0 213 -141 360q-141 145 -352 146q-215 0 -355 -146q-141 -147 -141 -360q0 -209 143 -359q139 -145 353 -145q211 0 354 145q139 150 139 359zM922 459q0 -147 -99 -252q-102 -104 -239 -105q-139 0 -240 107q-100 100 -100 250q0 152 100 254q98 104 240 104 q139 0 239 -106q99 -102 99 -252z" />
<glyph unicode="&#xf6;" horiz-adv-x="1165" d="M821 1118v191h-190v-193zM541 1116v193h-191v-193h191zM1077 459q0 213 -141 360q-141 145 -352 146q-215 0 -355 -146q-141 -147 -141 -360q0 -209 143 -359q139 -145 353 -145q211 0 354 145q139 150 139 359zM922 459q0 -147 -99 -252q-102 -104 -239 -105 q-139 0 -240 107q-100 100 -100 250q0 152 100 254q98 104 240 104q139 0 239 -106q99 -102 99 -252z" />
<glyph unicode="&#xf7;" horiz-adv-x="1419" d="M791 942v223h-162v-225zM1272 647v144h-1125v-144h1125zM791 272v226h-162v-226h162z" />
<glyph unicode="&#xf8;" horiz-adv-x="1165" d="M1083 692q0 25 -10 53.5t-26.5 56t-35 51.5t-34.5 40l37 80l-41 33l-109 -123q-119 82 -278 82q-104 0 -193.5 -36t-161.5 -110q-139 -145 -139 -360q0 -201 117 -332l-125 -143l104 -80l117 135q119 -84 281 -84q104 0 193 36t161 109q102 104 121 256q12 129 -37 234 q0 4 9 19.5t20.5 31.5t20.5 31.5t9 19.5zM926 459q0 -150 -101 -252q-98 -104 -239 -105q-102 0 -178 54l448 516q70 -92 70 -213zM762 764l-449 -516q-66 90 -65 211q0 154 98 254q100 104 240 104q100 0 176 -53z" />
<glyph unicode="&#xf9;" horiz-adv-x="1054" d="M770 1042l-248 371h-241l364 -373zM928 -27v973h-150v-663q-31 -59 -106 -119q-74 -61 -168 -62q-109 0 -168.5 70t-59.5 201v573h-149v-594q0 -193 102.5 -295t286.5 -102q84 0 164 45q51 27 98 90v-117h150z" />
<glyph unicode="&#xfa;" horiz-adv-x="1054" d="M926 1413h-240l-248 -373h125zM915 -27v973h-149v-663q-33 -61 -104 -119q-74 -61 -168 -62q-111 0 -170.5 70t-59.5 201v573h-149v-594q0 -190 104 -295q102 -102 287 -102q80 0 164 45q53 29 96 90v-117h149z" />
<glyph unicode="&#xfb;" horiz-adv-x="1054" d="M856 1024l-258 387h-145l-256 -389h137l190 211l195 -211zM928 -27v973h-150v-663q-31 -59 -106 -119q-74 -61 -168 -62q-109 0 -168.5 70t-59.5 201v573h-149v-594q0 -193 102.5 -295t286.5 -102q84 0 164 45q51 27 98 90v-117h150z" />
<glyph unicode="&#xfc;" horiz-adv-x="1054" d="M764 1118v191h-191v-193zM483 1116v193h-190v-193h190zM928 -27v973h-150v-663q-31 -59 -106 -119q-74 -61 -168 -62q-109 0 -168.5 70t-59.5 201v573h-149v-594q0 -193 102.5 -295t286.5 -102q84 0 164 45q51 27 98 90v-117h150z" />
<glyph unicode="&#xfd;" horiz-adv-x="897" d="M854 1413h-240l-247 -373h122zM922 944h-158l-299 -610l-315 612h-164l401 -770l-334 -674h158z" />
<glyph unicode="&#xfe;" horiz-adv-x="1097" d="M1001 461q0 221 -139 362.5t-354 141.5q-35 0 -70 -5.5t-71 -15.5q-53 -12 -99 -37v516h-149v-1921h149v510q27 -12 52.5 -22t52.5 -17q70 -18 155 -18q195 0 334 154q139 149 139 352zM842 459q0 -156 -97 -256q-92 -100 -249 -101q-41 0 -77 7.5t-67 17.5 q-25 10 -46 17.5t-38 17.5v598q23 14 76 33q55 25 139 24q154 0 256 -104q103 -98 103 -254z" />
<glyph unicode="&#xff;" horiz-adv-x="897" d="M680 1118v191h-191v-193zM399 1116v193h-190v-193h190zM922 944h-158l-299 -610l-315 612h-164l401 -770l-334 -674h158z" />
<glyph unicode="&#x152;" horiz-adv-x="1927" d="M1829 -27v144h-676v516l643 2v139h-643v508h662v141h-957q-319 0 -539 -206q-217 -203 -217 -510q0 -317 217 -527q217 -207 543 -207h967zM993 117h-108q-266 0 -441 164q-174 168 -174 417q0 127 44 228.5t130 187.5q174 168 435 168h114v-1165z" />
<glyph unicode="&#x153;" horiz-adv-x="1792" d="M1688 469q0 119 -26 206t-77 154q-102 135 -268 136q-117 0 -209 -50q-76 -39 -143 -131q-63 86 -152 131q-96 49 -240 50q-203 0 -337 -148q-133 -145 -134 -358q0 -211 134 -357q135 -147 331 -147q141 0 256 63q43 27 80 60t66 74q51 -104 141 -148q100 -49 221 -49 q102 0 197 45q43 20 76.5 43t64.5 49v184q-51 -49 -84 -75.5t-72 -53.5q-72 -45 -157 -45q-127 0 -215 101q-80 92 -86 229v37h633zM1509 600h-436q20 76 51 119q68 98 179 98q92 0 145 -63q47 -55 61 -156v2zM897 459q0 -147 -94 -254q-92 -102 -225 -103q-131 0 -226 105 q-94 102 -94 252t94 256q92 102 226 102q129 0 225 -104q94 -102 94 -254z" />
<glyph unicode="&#x178;" horiz-adv-x="1253" d="M862 1565v190h-190v-192zM582 1563v192h-191v-192h191zM1278 1421h-197l-452 -538l-457 540h-197l572 -684v-766h160v766z" />
<glyph unicode="&#x2c6;" horiz-adv-x="716" d="M688 1024l-258 387h-145l-256 -389h137l190 211l195 -211z" />
<glyph unicode="&#x2dc;" horiz-adv-x="716" d="M717 1341h-111q-8 -43 -14 -60t-14 -24q-18 -16 -35 -16q-23 0 -61 12.5t-99 36.5q-119 53 -190 53q-47 0 -85 -16t-65 -53q-23 -33 -34 -74t-11 -104h115q4 45 10 61.5t14 22.5q23 16 39 16q33 0 156 -49q119 -53 192 -53q47 0 85 17t63 52q23 33 34 74t11 104z" />
<glyph unicode="&#x2000;" horiz-adv-x="1021" />
<glyph unicode="&#x2001;" horiz-adv-x="2045" />
<glyph unicode="&#x2002;" horiz-adv-x="1021" />
<glyph unicode="&#x2003;" horiz-adv-x="2045" />
<glyph unicode="&#x2004;" horiz-adv-x="681" />
<glyph unicode="&#x2005;" horiz-adv-x="509" />
<glyph unicode="&#x2006;" horiz-adv-x="339" />
<glyph unicode="&#x2007;" horiz-adv-x="339" />
<glyph unicode="&#x2008;" horiz-adv-x="253" />
<glyph unicode="&#x2009;" horiz-adv-x="407" />
<glyph unicode="&#x200a;" horiz-adv-x="112" />
<glyph unicode="&#x2010;" horiz-adv-x="673" d="M604 492v126h-536v-126h536z" />
<glyph unicode="&#x2011;" horiz-adv-x="673" d="M604 492v126h-536v-126h536z" />
<glyph unicode="&#x2012;" horiz-adv-x="673" d="M604 492v126h-536v-126h536z" />
<glyph unicode="&#x2013;" d="M1087 455v116h-1099v-118z" />
<glyph unicode="&#x2014;" horiz-adv-x="2150" d="M2138 455v116h-2126v-118z" />
<glyph unicode="&#x2018;" horiz-adv-x="380" d="M297 1321v127q-51 -35 -90 -64.5t-66 -68.5q-49 -80 -49 -211v-168h184v252h-40q2 23 4 40t6 29q2 6 10 15q8 12 12 16q13 10 29 33z" />
<glyph unicode="&#x2019;" horiz-adv-x="380" d="M287 1260v167h-185v-251h43q-2 -23 -4 -40.5t-6 -29.5q-2 -6 -10 -14q-4 -6 -14 -17q-6 -6 -12.5 -14t-16.5 -19v-127q53 35 92 65t64 69q27 41 38 93t11 118z" />
<glyph unicode="&#x201a;" horiz-adv-x="380" d="M283 57v168h-185v-252h41q0 -43 -10 -69q-4 -16 -11 -31.5t-20 -32.5v-127q55 35 84 67t51 66q50 80 50 211z" />
<glyph unicode="&#x201c;" horiz-adv-x="851" d="M758 1321v127l-91 -64.5t-65 -68.5q-49 -80 -49 -211v-168h184v252h-41q0 23 2 40t7 29q2 6 10 15q4 4 7 8t7 8q6 6 12.5 14.5t16.5 18.5zM309 1321v127l-91 -64.5t-64 -68.5q-49 -80 -50 -211v-168h185v252h-41q0 23 2 40t6 29q2 6 10 15q4 4 7 8t8 8q6 6 12 14.5 t16 18.5z" />
<glyph unicode="&#x201d;" horiz-adv-x="851" d="M748 1260v167h-185v-251h41q0 -43 -10 -70q0 -6 -8 -14q-4 -4 -7.5 -8.5t-7.5 -8.5q-6 -6 -13 -14l-15 -19v-127q51 35 91 65t64 69q50 80 50 211zM299 1260v167h-184v-251h41q0 -43 -11 -70q0 -6 -8 -14q-4 -4 -7 -8.5t-7 -8.5q-6 -6 -13 -14l-16 -19v-127q51 35 91 65 t65 69q49 80 49 211z" />
<glyph unicode="&#x201e;" horiz-adv-x="851" d="M743 57v168h-184v-252h41q0 -23 -2 -40t-6 -27q0 -6 -10 -17q-4 -6 -15 -16q-6 -6 -12 -13l-16 -20v-127l90 64q39 29 63 67q51 84 51 213zM303 57v168h-184v-252h41q0 -23 -2 -40t-6 -27q0 -6 -11 -17q-4 -6 -14 -16q-6 -6 -12 -13l-17 -20v-127l90 64q39 29 64 67 q51 84 51 213z" />
<glyph unicode="&#x2022;" d="M813 698q0 115 -82 197q-80 80 -194 80q-113 0 -195 -82q-80 -80 -80 -195t82 -196q80 -80 195 -80q113 0 194 82q80 79 80 194z" />
<glyph unicode="&#x2026;" horiz-adv-x="2150" d="M1847 -27v254h-182v-254h182zM1165 -27v254h-182v-254h182zM483 -27v254h-182v-254h182z" />
<glyph unicode="&#x202f;" horiz-adv-x="407" />
<glyph unicode="&#x2039;" horiz-adv-x="604" d="M602 -14l-407 487l403 488h-190l-406 -488l410 -487h190z" />
<glyph unicode="&#x203a;" horiz-adv-x="604" d="M600 473l-403 488h-193l406 -488l-410 -487h193z" />
<glyph unicode="&#x205f;" horiz-adv-x="509" />
<glyph unicode="&#x2122;" horiz-adv-x="2912" d="M2738 -27v1450h-147l-518 -635l-521 635h-145v-1450h160v1198l506 -626l506 626v-1198h159zM1221 1282v141h-1209v-143h525v-1307h159v1309h525z" />
<glyph unicode="&#xe000;" horiz-adv-x="945" d="M0 945h945v-945h-945v945z" />
<glyph unicode="&#xfb01;" horiz-adv-x="919" d="M792 1204v219h-149v-221zM792 -27v973h-149v-973h149zM666 1249v142q-14 10 -32 16l-46 16q-27 8 -54.5 13.5t-60.5 5.5q-150 0 -250 -105q-96 -106 -96 -266v-127h-170v-131h170v-840h149v842h179v131h-179v94q0 72 13.5 119t36.5 76q47 59 141 59q53 0 106 -16 q23 -8 42.5 -13.5t50.5 -15.5z" />
<glyph unicode="&#xfb02;" horiz-adv-x="919" d="M792 -27v1450h-149v-1450h149zM666 1249v142q-14 10 -32 16l-46 16q-27 8 -54.5 13.5t-60.5 5.5q-150 0 -250 -105q-96 -106 -96 -266v-127h-170v-131h170v-840h149v842h179v131h-179v94q0 72 13.5 119t36.5 76q47 59 141 59q53 0 106 -16q23 -8 42.5 -13.5t50.5 -15.5z " />
<glyph unicode="&#xfb03;" horiz-adv-x="1435" d="M1308 1204v219h-149v-221zM1308 -27v973h-149v-973h149zM1182 1249v142q-14 10 -32 16l-46 16q-27 8 -54.5 13.5t-60.5 5.5q-150 0 -250 -105q-96 -106 -96 -266v-127h-170v-131h170v-840h149v842h179v131h-179v94q0 72 13.5 119t36.5 76q47 59 141 59q53 0 106 -16 q23 -8 42.5 -13.5t50.5 -15.5zM666 1249v142q-14 10 -32 16l-46 16q-27 8 -54.5 13.5t-60.5 5.5q-150 0 -250 -105q-96 -106 -96 -266v-127h-170v-131h170v-840h149v842h179v131h-179v94q0 72 13.5 119t36.5 76q47 59 141 59q53 0 106 -16q23 -8 42.5 -13.5t50.5 -15.5z" />
<glyph unicode="&#xfb04;" horiz-adv-x="1435" d="M1308 -27v1450h-149v-1450h149zM1182 1249v142q-14 10 -32 16l-46 16q-27 8 -54.5 13.5t-60.5 5.5q-150 0 -250 -105q-96 -106 -96 -266v-127h-170v-131h170v-840h149v842h179v131h-179v94q0 72 13.5 119t36.5 76q47 59 141 59q53 0 106 -16q23 -8 42.5 -13.5t50.5 -15.5 zM666 1249v142q-14 10 -32 16l-46 16q-27 8 -54.5 13.5t-60.5 5.5q-150 0 -250 -105q-96 -106 -96 -266v-127h-170v-131h170v-840h149v842h179v131h-179v94q0 72 13.5 119t36.5 76q47 59 141 59q53 0 106 -16q23 -8 42.5 -13.5t50.5 -15.5z" />
</font>
</defs>
</svg>
